<svg xmlns="http://www.w3.org/2000/svg" viewBox="0 0 819 318" width="819" height="318" role="img" aria-label="Lavender House Cleaning">
<defs>
  <linearGradient id="stemGrad" x1="0" y1="1" x2="0.25" y2="0">
    <stop offset="0" stop-color="#8f7398"/><stop offset="1" stop-color="#a98cb1"/>
  </linearGradient>
  <linearGradient id="leafGrad" x1="0" y1="1" x2="1" y2="0">
    <stop offset="0" stop-color="#9c82a4"/><stop offset="1" stop-color="#b79dbd"/>
  </linearGradient>
  <radialGradient id="glow" cx="0.5" cy="0.42" r="0.62">
    <stop offset="0" stop-color="#fffdf8" stop-opacity="0.95"/>
    <stop offset="0.55" stop-color="#faf6ec" stop-opacity="0.5"/>
    <stop offset="1" stop-color="#f2ebdb" stop-opacity="0"/>
  </radialGradient>
  <linearGradient id="ringGrad" x1="0" y1="0" x2="1" y2="1">
    <stop offset="0" stop-color="#c9a8e2"/><stop offset="0.5" stop-color="#995ec9"/>
    <stop offset="1" stop-color="#a98cb1"/>
  </linearGradient>
  <linearGradient id="discGrad" x1="0.15" y1="0" x2="0.85" y2="1">
    <stop offset="0" stop-color="#fffdf8"/><stop offset="1" stop-color="#f7f1e3"/>
  </linearGradient>
</defs><g transform="translate(44.00 44.00) scale(0.5651) translate(-195.0 -65.0)"><path d="M 229.87,457.29 L 227.19,450.15 L 224.65,443.02 L 222.26,435.88 L 220.01,428.74 L 217.90,421.60 L 215.93,414.47 L 214.10,407.34 L 212.41,400.22 L 210.85,393.12 L 209.43,386.02 L 208.15,378.94 L 207.00,371.87 L 205.98,364.82 L 205.09,357.79 L 204.33,350.79 L 203.70,343.81 L 203.20,336.85 L 202.82,329.93 L 202.57,323.04 L 202.44,316.17 L 202.43,309.35 L 202.54,302.56 L 202.78,295.81 L 203.13,289.10 L 203.60,282.44 L 204.19,275.82 L 204.89,269.25 L 205.71,262.73 L 206.63,256.26 L 207.67,249.85 L 208.82,243.49 L 210.08,237.19 L 211.45,230.95 L 212.93,224.77 L 214.50,218.65 L 216.19,212.61 L 217.98,206.63 L 219.86,200.72 L 221.85,194.89 L 223.94,189.13 L 226.13,183.44 L 228.41,177.84 L 230.79,172.32 L 233.27,166.88 L 235.84,161.53 L 238.50,156.26 L 237.50,155.74 L 234.78,161.00 L 232.14,166.35 L 229.60,171.78 L 227.15,177.30 L 224.80,182.91 L 222.54,188.60 L 220.39,194.36 L 218.33,200.21 L 216.37,206.12 L 214.51,212.12 L 212.76,218.18 L 211.11,224.31 L 209.57,230.51 L 208.13,236.77 L 206.80,243.09 L 205.59,249.48 L 204.48,255.92 L 203.48,262.42 L 202.60,268.97 L 201.83,275.58 L 201.18,282.24 L 200.64,288.94 L 200.22,295.69 L 199.92,302.48 L 199.75,309.32 L 199.69,316.19 L 199.76,323.10 L 199.95,330.05 L 200.27,337.03 L 200.71,344.04 L 201.28,351.08 L 201.99,358.14 L 202.82,365.23 L 203.79,372.35 L 204.88,379.48 L 206.12,386.64 L 207.49,393.80 L 208.99,400.99 L 210.64,408.18 L 212.42,415.39 L 214.35,422.60 L 216.41,429.82 L 218.63,437.04 L 220.98,444.27 L 223.48,451.49 L 226.13,458.71 Z" fill="url(#stemGrad)"/><path d="M 0,-3.91 C 2.49,-2.03 2.29,1.33 0,3.91 C -2.29,1.33 -2.49,-2.03 0,-3.91 Z" fill="#7a45a8" fill-opacity="0.26" transform="translate(236.83 159.33) rotate(22.37)"/><path d="M 0,-4.24 C 2.69,-2.20 2.48,1.44 0,4.24 C -2.48,1.44 -2.69,-2.20 0,-4.24 Z" fill="#7a45a8" fill-opacity="0.26" transform="translate(238.72 155.83) rotate(28.53)"/><path d="M 0,-4.09 C 2.73,-2.12 2.52,1.39 0,4.09 C -2.52,1.39 -2.73,-2.12 0,-4.09 Z" fill="#7a45a8" fill-opacity="0.26" transform="translate(239.17 154.97) rotate(41.49)"/><path d="M 0,-1.76 C 1.07,-0.92 0.99,0.60 0,1.76 C -0.99,0.60 -1.07,-0.92 0,-1.76 Z" fill="#f2e8f9" fill-opacity="0.75" transform="translate(236.10 158.26) rotate(22.37)"/><path d="M 0,-1.91 C 1.16,-0.99 1.07,0.65 0,1.91 C -1.07,0.65 -1.16,-0.99 0,-1.91 Z" fill="#f2e8f9" fill-opacity="0.75" transform="translate(237.93 154.66) rotate(28.53)"/><path d="M 0,-1.84 C 1.18,-0.96 1.09,0.63 0,1.84 C -1.09,0.63 -1.18,-0.96 0,-1.84 Z" fill="#f2e8f9" fill-opacity="0.75" transform="translate(238.36 153.85) rotate(41.49)"/><path d="M 0,-3.83 C 2.44,-1.99 2.25,1.30 0,3.83 C -2.25,1.30 -2.44,-1.99 0,-3.83 Z" fill="#dcc8ee" fill-opacity="1.00" transform="translate(236.49 158.87) rotate(22.37)"/><path d="M 0,-4.15 C 2.64,-2.16 2.43,1.41 0,4.15 C -2.43,1.41 -2.64,-2.16 0,-4.15 Z" fill="#dcc8ee" fill-opacity="1.00" transform="translate(238.35 155.33) rotate(28.53)"/><path d="M 0,-4.01 C 2.68,-2.08 2.47,1.36 0,4.01 C -2.47,1.36 -2.68,-2.08 0,-4.01 Z" fill="#dcc8ee" fill-opacity="1.00" transform="translate(238.79 154.49) rotate(41.49)"/><path d="M 0,-7.71 C 4.58,-4.01 4.22,2.62 0,7.71 C -4.22,2.62 -4.58,-4.01 0,-7.71 Z" fill="#7a45a8" fill-opacity="0.26" transform="translate(231.87 170.53) rotate(11.56)"/><path d="M 0,-7.81 C 5.42,-4.06 4.99,2.66 0,7.81 C -4.99,2.66 -5.42,-4.06 0,-7.81 Z" fill="#7a45a8" fill-opacity="0.26" transform="translate(234.37 165.60) rotate(23.09)"/><path d="M 0,-7.18 C 5.42,-3.73 4.99,2.44 0,7.18 C -4.99,2.44 -5.42,-3.73 0,-7.18 Z" fill="#7a45a8" fill-opacity="0.26" transform="translate(237.06 159.98) rotate(35.70)"/><path d="M 0,-3.48 C 1.98,-1.81 1.82,1.18 0,3.48 C -1.82,1.18 -1.98,-1.81 0,-3.48 Z" fill="#f2e8f9" fill-opacity="0.75" transform="translate(230.52 168.41) rotate(11.56)"/><path d="M 0,-7.56 C 4.49,-3.93 4.13,2.57 0,7.56 C -4.13,2.57 -4.49,-3.93 0,-7.56 Z" fill="#dcc8ee" fill-opacity="1.00" transform="translate(231.24 169.62) rotate(11.56)"/><path d="M 0,-7.66 C 5.31,-3.98 4.89,2.60 0,7.66 C -4.89,2.60 -5.31,-3.98 0,-7.66 Z" fill="#cbb0e5" fill-opacity="1.00" transform="translate(233.63 164.68) rotate(23.09)"/><path d="M 0,-7.04 C 5.32,-3.66 4.89,2.39 0,7.04 C -4.89,2.39 -5.32,-3.66 0,-7.04 Z" fill="#dcc8ee" fill-opacity="1.00" transform="translate(236.31 159.14) rotate(35.70)"/><path d="M 0,-8.66 C 5.69,-4.50 5.23,2.95 0,8.66 C -5.23,2.95 -5.69,-4.50 0,-8.66 Z" fill="#7a45a8" fill-opacity="0.26" transform="translate(228.18 179.35) rotate(4.96)"/><path d="M 0,-10.41 C 6.84,-5.41 6.29,3.54 0,10.41 C -6.29,3.54 -6.84,-5.41 0,-10.41 Z" fill="#7a45a8" fill-opacity="0.26" transform="translate(230.51 174.68) rotate(27.21)"/><path d="M 0,-10.84 C 6.88,-5.63 6.33,3.68 0,10.84 C -6.33,3.68 -6.88,-5.63 0,-10.84 Z" fill="#7a45a8" fill-opacity="0.26" transform="translate(233.42 168.19) rotate(42.28)"/><path d="M 0,-3.91 C 2.45,-2.03 2.26,1.33 0,3.91 C -2.26,1.33 -2.45,-2.03 0,-3.91 Z" fill="#f2e8f9" fill-opacity="0.75" transform="translate(226.51 176.97) rotate(4.96)"/><path d="M 0,-4.69 C 2.95,-2.44 2.71,1.60 0,4.69 C -2.71,1.60 -2.95,-2.44 0,-4.69 Z" fill="#f2e8f9" fill-opacity="0.75" transform="translate(228.50 171.82) rotate(27.21)"/><path d="M 0,-4.89 C 2.97,-2.54 2.73,1.66 0,4.89 C -2.73,1.66 -2.97,-2.54 0,-4.89 Z" fill="#e9dbf4" fill-opacity="0.75" transform="translate(231.40 165.21) rotate(42.28)"/><path d="M 0,-8.49 C 5.58,-4.42 5.13,2.89 0,8.49 C -5.13,2.89 -5.58,-4.42 0,-8.49 Z" fill="#dcc8ee" fill-opacity="1.00" transform="translate(227.40 178.33) rotate(4.96)"/><path d="M 0,-10.20 C 6.70,-5.31 6.17,3.47 0,10.20 C -6.17,3.47 -6.70,-5.31 0,-10.20 Z" fill="#dcc8ee" fill-opacity="1.00" transform="translate(229.57 173.46) rotate(27.21)"/><path d="M 0,-10.62 C 6.75,-5.52 6.21,3.61 0,10.62 C -6.21,3.61 -6.75,-5.52 0,-10.62 Z" fill="#cbb0e5" fill-opacity="1.00" transform="translate(232.48 166.91) rotate(42.28)"/><path d="M 0,-12.11 C 7.38,-6.30 6.79,4.12 0,12.11 C -6.79,4.12 -7.38,-6.30 0,-12.11 Z" fill="#7a45a8" fill-opacity="0.26" transform="translate(222.57 194.18) rotate(1.05)"/><path d="M 0,-10.94 C 6.81,-5.69 6.27,3.72 0,10.94 C -6.27,3.72 -6.81,-5.69 0,-10.94 Z" fill="#7a45a8" fill-opacity="0.26" transform="translate(225.37 186.97) rotate(21.26)"/><path d="M 0,-11.61 C 7.42,-6.04 6.83,3.95 0,11.61 C -6.83,3.95 -7.42,-6.04 0,-11.61 Z" fill="#7a45a8" fill-opacity="0.26" transform="translate(228.31 180.05) rotate(32.45)"/><path d="M 0,-9.69 C 8.04,-5.04 7.40,3.29 0,9.69 C -7.40,3.29 -8.04,-5.04 0,-9.69 Z" fill="#7a45a8" fill-opacity="0.26" transform="translate(230.91 173.66) rotate(35.98)"/><path d="M 0,-5.24 C 3.20,-2.72 2.95,1.78 0,5.24 C -2.95,1.78 -3.20,-2.72 0,-5.24 Z" fill="#e9dbf4" fill-opacity="0.75" transform="translate(226.13 176.86) rotate(32.45)"/><path d="M 0,-11.87 C 7.24,-6.17 6.66,4.04 0,11.87 C -6.66,4.04 -7.24,-6.17 0,-11.87 Z" fill="#dcc8ee" fill-opacity="1.00" transform="translate(221.56 192.75) rotate(1.05)"/><path d="M 0,-10.72 C 6.68,-5.57 6.15,3.65 0,10.72 C -6.15,3.65 -6.68,-5.57 0,-10.72 Z" fill="#b992dc" fill-opacity="1.00" transform="translate(224.44 185.68) rotate(21.26)"/><path d="M 0,-11.38 C 7.28,-5.92 6.70,3.87 0,11.38 C -6.70,3.87 -7.28,-5.92 0,-11.38 Z" fill="#cbb0e5" fill-opacity="1.00" transform="translate(227.29 178.68) rotate(32.45)"/><path d="M 0,-9.50 C 7.88,-4.94 7.25,3.23 0,9.50 C -7.25,3.23 -7.88,-4.94 0,-9.50 Z" fill="#b992dc" fill-opacity="1.00" transform="translate(229.80 172.52) rotate(35.98)"/><path d="M 0,-12.29 C 8.54,-6.39 7.85,4.18 0,12.29 C -7.85,4.18 -8.54,-6.39 0,-12.29 Z" fill="#7a45a8" fill-opacity="0.26" transform="translate(219.57 203.33) rotate(-5.05)"/><path d="M 0,-13.20 C 8.26,-6.86 7.60,4.49 0,13.20 C -7.60,4.49 -8.26,-6.86 0,-13.20 Z" fill="#7a45a8" fill-opacity="0.26" transform="translate(222.26 196.09) rotate(9.18)"/><path d="M 0,-12.90 C 7.89,-6.71 7.26,4.39 0,12.90 C -7.26,4.39 -7.89,-6.71 0,-12.90 Z" fill="#7a45a8" fill-opacity="0.26" transform="translate(225.26 187.86) rotate(26.62)"/><path d="M 0,-11.37 C 7.65,-5.91 7.03,3.87 0,11.37 C -7.03,3.87 -7.65,-5.91 0,-11.37 Z" fill="#7a45a8" fill-opacity="0.26" transform="translate(227.98 180.26) rotate(44.82)"/><path d="M 0,-5.54 C 3.68,-2.88 3.39,1.88 0,5.54 C -3.39,1.88 -3.68,-2.88 0,-5.54 Z" fill="#e9dbf4" fill-opacity="0.75" transform="translate(217.06 199.96) rotate(-5.05)"/><path d="M 0,-12.05 C 8.37,-6.27 7.70,4.10 0,12.05 C -7.70,4.10 -8.37,-6.27 0,-12.05 Z" fill="#cbb0e5" fill-opacity="1.00" transform="translate(218.39 201.89) rotate(-5.05)"/><path d="M 0,-12.94 C 8.10,-6.73 7.45,4.40 0,12.94 C -7.45,4.40 -8.10,-6.73 0,-12.94 Z" fill="#a877d1" fill-opacity="1.00" transform="translate(221.13 194.53) rotate(9.18)"/><path d="M 0,-12.65 C 7.74,-6.58 7.12,4.30 0,12.65 C -7.12,4.30 -7.74,-6.58 0,-12.65 Z" fill="#b992dc" fill-opacity="1.00" transform="translate(224.17 186.34) rotate(26.62)"/><path d="M 0,-11.15 C 7.50,-5.80 6.90,3.79 0,11.15 C -6.90,3.79 -7.50,-5.80 0,-11.15 Z" fill="#b992dc" fill-opacity="1.00" transform="translate(226.93 178.92) rotate(44.82)"/><path d="M 0,-14.94 C 9.36,-7.77 8.61,5.08 0,14.94 C -8.61,5.08 -9.36,-7.77 0,-14.94 Z" fill="#7a45a8" fill-opacity="0.26" transform="translate(214.69 219.09) rotate(1.15)"/><path d="M 0,-14.06 C 7.95,-7.31 7.31,4.78 0,14.06 C -7.31,4.78 -7.95,-7.31 0,-14.06 Z" fill="#7a45a8" fill-opacity="0.26" transform="translate(217.44 210.25) rotate(1.76)"/><path d="M 0,-15.28 C 9.26,-7.94 8.52,5.19 0,15.28 C -8.52,5.19 -9.26,-7.94 0,-15.28 Z" fill="#7a45a8" fill-opacity="0.26" transform="translate(220.21 202.74) rotate(19.93)"/><path d="M 0,-13.24 C 9.14,-6.88 8.41,4.50 0,13.24 C -8.41,4.50 -9.14,-6.88 0,-13.24 Z" fill="#7a45a8" fill-opacity="0.26" transform="translate(223.46 192.80) rotate(28.52)"/><path d="M 0,-13.39 C 9.18,-6.96 8.45,4.55 0,13.39 C -8.45,4.55 -9.18,-6.96 0,-13.39 Z" fill="#7a45a8" fill-opacity="0.26" transform="translate(225.86 185.70) rotate(44.09)"/><path d="M 0,-5.97 C 3.94,-3.10 3.63,2.03 0,5.97 C -3.63,2.03 -3.94,-3.10 0,-5.97 Z" fill="#dfcbef" fill-opacity="0.75" transform="translate(220.77 189.17) rotate(28.52)"/><path d="M 0,-14.64 C 9.18,-7.61 8.44,4.98 0,14.64 C -8.44,4.98 -9.18,-7.61 0,-14.64 Z" fill="#cbb0e5" fill-opacity="1.00" transform="translate(213.41 217.34) rotate(1.15)"/><path d="M 0,-13.78 C 7.79,-7.17 7.17,4.69 0,13.78 C -7.17,4.69 -7.79,-7.17 0,-13.78 Z" fill="#cbb0e5" fill-opacity="1.00" transform="translate(216.35 208.60) rotate(1.76)"/><path d="M 0,-14.98 C 9.08,-7.79 8.36,5.09 0,14.98 C -8.36,5.09 -9.08,-7.79 0,-14.98 Z" fill="#cbb0e5" fill-opacity="1.00" transform="translate(218.94 200.94) rotate(19.93)"/><path d="M 0,-12.98 C 8.96,-6.75 8.25,4.41 0,12.98 C -8.25,4.41 -8.96,-6.75 0,-12.98 Z" fill="#b992dc" fill-opacity="1.00" transform="translate(222.20 191.24) rotate(28.52)"/><path d="M 0,-13.12 C 9.00,-6.82 8.28,4.46 0,13.12 C -8.28,4.46 -9.00,-6.82 0,-13.12 Z" fill="#b992dc" fill-opacity="1.00" transform="translate(224.60 184.12) rotate(44.09)"/><path d="M 0,-12.86 C 10.73,-6.69 9.87,4.37 0,12.86 C -9.87,4.37 -10.73,-6.69 0,-12.86 Z" fill="#7a45a8" fill-opacity="0.26" transform="translate(212.10 229.39) rotate(-9.71)"/><path d="M 0,-14.81 C 10.09,-7.70 9.28,5.04 0,14.81 C -9.28,5.04 -10.09,-7.70 0,-14.81 Z" fill="#7a45a8" fill-opacity="0.26" transform="translate(214.87 220.20) rotate(10.66)"/><path d="M 0,-13.73 C 9.33,-7.14 8.58,4.67 0,13.73 C -8.58,4.67 -9.33,-7.14 0,-13.73 Z" fill="#7a45a8" fill-opacity="0.26" transform="translate(217.45 211.23) rotate(21.97)"/><path d="M 0,-13.76 C 10.17,-7.15 9.36,4.68 0,13.76 C -9.36,4.68 -10.17,-7.15 0,-13.76 Z" fill="#7a45a8" fill-opacity="0.26" transform="translate(220.36 202.03) rotate(30.52)"/><path d="M 0,-15.42 C 10.56,-8.02 9.72,5.24 0,15.42 C -9.72,5.24 -10.56,-8.02 0,-15.42 Z" fill="#7a45a8" fill-opacity="0.26" transform="translate(223.35 192.55) rotate(41.43)"/><path d="M 0,-6.19 C 4.02,-3.22 3.70,2.11 0,6.19 C -3.70,2.11 -4.02,-3.22 0,-6.19 Z" fill="#e9dbf4" fill-opacity="0.75" transform="translate(214.71 207.46) rotate(21.97)"/><path d="M 0,-6.20 C 4.39,-3.23 4.04,2.11 0,6.20 C -4.04,2.11 -4.39,-3.23 0,-6.20 Z" fill="#e9dbf4" fill-opacity="0.75" transform="translate(217.37 198.26) rotate(30.52)"/><path d="M 0,-12.60 C 10.52,-6.55 9.67,4.29 0,12.60 C -9.67,4.29 -10.52,-6.55 0,-12.60 Z" fill="#b992dc" fill-opacity="1.00" transform="translate(210.63 227.88) rotate(-9.71)"/><path d="M 0,-14.52 C 9.89,-7.55 9.10,4.94 0,14.52 C -9.10,4.94 -9.89,-7.55 0,-14.52 Z" fill="#b992dc" fill-opacity="1.00" transform="translate(213.49 218.45) rotate(10.66)"/><path d="M 0,-13.46 C 9.14,-7.00 8.41,4.58 0,13.46 C -8.41,4.58 -9.14,-7.00 0,-13.46 Z" fill="#cbb0e5" fill-opacity="1.00" transform="translate(216.17 209.62) rotate(21.97)"/><path d="M 0,-13.49 C 9.98,-7.01 9.18,4.59 0,13.49 C -9.18,4.59 -9.98,-7.01 0,-13.49 Z" fill="#cbb0e5" fill-opacity="1.00" transform="translate(218.97 200.41) rotate(30.52)"/><path d="M 0,-15.12 C 10.35,-7.86 9.52,5.14 0,15.12 C -9.52,5.14 -10.35,-7.86 0,-15.12 Z" fill="#b992dc" fill-opacity="1.00" transform="translate(221.90 190.74) rotate(41.43)"/><path d="M 0,-17.04 C 11.37,-8.86 10.46,5.79 0,17.04 C -10.46,5.79 -11.37,-8.86 0,-17.04 Z" fill="#7a45a8" fill-opacity="0.26" transform="translate(209.47 241.50) rotate(-4.94)"/><path d="M 0,-14.39 C 10.31,-7.48 9.49,4.89 0,14.39 C -9.49,4.89 -10.31,-7.48 0,-14.39 Z" fill="#7a45a8" fill-opacity="0.26" transform="translate(211.96 231.49) rotate(-2.96)"/><path d="M 0,-14.05 C 9.78,-7.31 9.00,4.78 0,14.05 C -9.00,4.78 -9.78,-7.31 0,-14.05 Z" fill="#7a45a8" fill-opacity="0.26" transform="translate(214.82 220.64) rotate(19.06)"/><path d="M 0,-13.62 C 10.56,-7.08 9.72,4.63 0,13.62 C -9.72,4.63 -10.56,-7.08 0,-13.62 Z" fill="#7a45a8" fill-opacity="0.26" transform="translate(217.64 210.60) rotate(27.62)"/><path d="M 0,-15.19 C 9.72,-7.90 8.95,5.17 0,15.19 C -8.95,5.17 -9.72,-7.90 0,-15.19 Z" fill="#7a45a8" fill-opacity="0.26" transform="translate(219.86 202.14) rotate(37.02)"/><path d="M 0,-7.69 C 4.91,-4.00 4.51,2.61 0,7.69 C -4.51,2.61 -4.91,-4.00 0,-7.69 Z" fill="#d4bbe9" fill-opacity="0.75" transform="translate(206.13 236.83) rotate(-4.94)"/><path d="M 0,-6.49 C 4.45,-3.37 4.09,2.21 0,6.49 C -4.09,2.21 -4.45,-3.37 0,-6.49 Z" fill="#dfcbef" fill-opacity="0.75" transform="translate(208.93 227.54) rotate(-2.96)"/><path d="M 0,-6.34 C 4.22,-3.29 3.88,2.15 0,6.34 C -3.88,2.15 -4.22,-3.29 0,-6.34 Z" fill="#dfcbef" fill-opacity="0.75" transform="translate(211.94 216.78) rotate(19.06)"/><path d="M 0,-6.85 C 4.19,-3.56 3.86,2.33 0,6.85 C -3.86,2.33 -4.19,-3.56 0,-6.85 Z" fill="#dfcbef" fill-opacity="0.75" transform="translate(217.00 197.97) rotate(37.02)"/><path d="M 0,-16.71 C 11.15,-8.69 10.26,5.68 0,16.71 C -10.26,5.68 -11.15,-8.69 0,-16.71 Z" fill="#a877d1" fill-opacity="1.00" transform="translate(207.91 239.50) rotate(-4.94)"/><path d="M 0,-14.11 C 10.11,-7.33 9.30,4.80 0,14.11 C -9.30,4.80 -10.11,-7.33 0,-14.11 Z" fill="#b992dc" fill-opacity="1.00" transform="translate(210.55 229.80) rotate(-2.96)"/><path d="M 0,-13.77 C 9.59,-7.16 8.82,4.68 0,13.77 C -8.82,4.68 -9.59,-7.16 0,-13.77 Z" fill="#b992dc" fill-opacity="1.00" transform="translate(213.48 218.98) rotate(19.06)"/><path d="M 0,-13.35 C 10.36,-6.94 9.53,4.54 0,13.35 C -9.53,4.54 -10.36,-6.94 0,-13.35 Z" fill="#a877d1" fill-opacity="1.00" transform="translate(216.19 209.00) rotate(27.62)"/><path d="M 0,-14.90 C 9.53,-7.75 8.77,5.06 0,14.90 C -8.77,5.06 -9.53,-7.75 0,-14.90 Z" fill="#b992dc" fill-opacity="1.00" transform="translate(218.53 200.36) rotate(37.02)"/><path d="M 0,-14.52 C 11.24,-7.55 10.34,4.94 0,14.52 C -10.34,4.94 -11.24,-7.55 0,-14.52 Z" fill="#7a45a8" fill-opacity="0.26" transform="translate(207.60 251.00) rotate(-14.52)"/><path d="M 0,-15.40 C 10.44,-8.01 9.60,5.24 0,15.40 C -9.60,5.24 -10.44,-8.01 0,-15.40 Z" fill="#7a45a8" fill-opacity="0.26" transform="translate(209.97 240.74) rotate(-2.79)"/><path d="M 0,-15.72 C 9.63,-8.18 8.86,5.35 0,15.72 C -8.86,5.35 -9.63,-8.18 0,-15.72 Z" fill="#7a45a8" fill-opacity="0.26" transform="translate(212.32 230.53) rotate(9.98)"/><path d="M 0,-17.95 C 11.07,-9.34 10.18,6.10 0,17.95 C -10.18,6.10 -11.07,-9.34 0,-17.95 Z" fill="#7a45a8" fill-opacity="0.26" transform="translate(214.96 220.57) rotate(32.35)"/><path d="M 0,-17.32 C 11.16,-9.01 10.26,5.89 0,17.32 C -10.26,5.89 -11.16,-9.01 0,-17.32 Z" fill="#7a45a8" fill-opacity="0.26" transform="translate(217.38 210.47) rotate(37.93)"/><path d="M 0,-6.55 C 4.85,-3.41 4.46,2.23 0,6.55 C -4.46,2.23 -4.85,-3.41 0,-6.55 Z" fill="#d4bbe9" fill-opacity="0.75" transform="translate(204.29 247.01) rotate(-14.52)"/><path d="M 0,-6.94 C 4.50,-3.61 4.14,2.36 0,6.94 C -4.14,2.36 -4.50,-3.61 0,-6.94 Z" fill="#dfcbef" fill-opacity="0.75" transform="translate(206.90 236.52) rotate(-2.79)"/><path d="M 0,-7.09 C 4.16,-3.69 3.82,2.41 0,7.09 C -3.82,2.41 -4.16,-3.69 0,-7.09 Z" fill="#d4bbe9" fill-opacity="0.75" transform="translate(209.48 226.21) rotate(9.98)"/><path d="M 0,-14.24 C 11.02,-7.40 10.14,4.84 0,14.24 C -10.14,4.84 -11.02,-7.40 0,-14.24 Z" fill="#a877d1" fill-opacity="1.00" transform="translate(206.06 249.29) rotate(-14.52)"/><path d="M 0,-15.10 C 10.23,-7.85 9.41,5.13 0,15.10 C -9.41,5.13 -10.23,-7.85 0,-15.10 Z" fill="#b992dc" fill-opacity="1.00" transform="translate(208.54 238.93) rotate(-2.79)"/><path d="M 0,-15.42 C 9.45,-8.02 8.69,5.24 0,15.42 C -8.69,5.24 -9.45,-8.02 0,-15.42 Z" fill="#a877d1" fill-opacity="1.00" transform="translate(211.00 228.68) rotate(9.98)"/><path d="M 0,-17.60 C 10.85,-9.15 9.98,5.98 0,17.60 C -9.98,5.98 -10.85,-9.15 0,-17.60 Z" fill="#a877d1" fill-opacity="1.00" transform="translate(213.45 218.45) rotate(32.35)"/><path d="M 0,-16.98 C 10.94,-8.83 10.06,5.77 0,16.98 C -10.06,5.77 -10.94,-8.83 0,-16.98 Z" fill="#a877d1" fill-opacity="1.00" transform="translate(215.85 208.43) rotate(37.93)"/><path d="M 0,-15.21 C 10.81,-7.91 9.95,5.17 0,15.21 C -9.95,5.17 -10.81,-7.91 0,-15.21 Z" fill="#7a45a8" fill-opacity="0.26" transform="translate(205.66 262.39) rotate(-14.63)"/><path d="M 0,-18.12 C 10.45,-9.42 9.61,6.16 0,18.12 C -9.61,6.16 -10.45,-9.42 0,-18.12 Z" fill="#7a45a8" fill-opacity="0.26" transform="translate(207.99 251.31) rotate(-3.28)"/><path d="M 0,-16.90 C 11.59,-8.79 10.67,5.75 0,16.90 C -10.67,5.75 -11.59,-8.79 0,-16.90 Z" fill="#7a45a8" fill-opacity="0.26" transform="translate(210.17 241.50) rotate(15.36)"/><path d="M 0,-16.66 C 11.12,-8.66 10.23,5.66 0,16.66 C -10.23,5.66 -11.12,-8.66 0,-16.66 Z" fill="#7a45a8" fill-opacity="0.26" transform="translate(212.52 229.86) rotate(29.01)"/><path d="M 0,-19.49 C 11.68,-10.14 10.75,6.63 0,19.49 C -10.75,6.63 -11.68,-10.14 0,-19.49 Z" fill="#7a45a8" fill-opacity="0.26" transform="translate(215.15 217.97) rotate(44.14)"/><path d="M 0,-6.86 C 4.66,-3.57 4.29,2.33 0,6.86 C -4.29,2.33 -4.66,-3.57 0,-6.86 Z" fill="#c8a9e2" fill-opacity="0.75" transform="translate(202.48 258.21) rotate(-14.63)"/><path d="M 0,-8.17 C 4.51,-4.25 4.15,2.78 0,8.17 C -4.15,2.78 -4.51,-4.25 0,-8.17 Z" fill="#dfcbef" fill-opacity="0.75" transform="translate(204.92 246.34) rotate(-3.28)"/><path d="M 0,-7.51 C 4.80,-3.91 4.41,2.55 0,7.51 C -4.41,2.55 -4.80,-3.91 0,-7.51 Z" fill="#d4bbe9" fill-opacity="0.75" transform="translate(209.25 225.29) rotate(29.01)"/><path d="M 0,-8.79 C 5.04,-4.57 4.64,2.99 0,8.79 C -4.64,2.99 -5.04,-4.57 0,-8.79 Z" fill="#dfcbef" fill-opacity="0.75" transform="translate(211.72 212.62) rotate(44.14)"/><path d="M 0,-14.91 C 10.60,-7.75 9.75,5.07 0,14.91 C -9.75,5.07 -10.60,-7.75 0,-14.91 Z" fill="#995ec9" fill-opacity="1.00" transform="translate(204.17 260.60) rotate(-14.63)"/><path d="M 0,-17.77 C 10.25,-9.24 9.43,6.04 0,17.77 C -9.43,6.04 -10.25,-9.24 0,-17.77 Z" fill="#b992dc" fill-opacity="1.00" transform="translate(206.55 249.18) rotate(-3.28)"/><path d="M 0,-16.57 C 11.37,-8.62 10.46,5.63 0,16.57 C -10.46,5.63 -11.37,-8.62 0,-16.57 Z" fill="#a877d1" fill-opacity="1.00" transform="translate(208.57 239.51) rotate(15.36)"/><path d="M 0,-16.33 C 10.90,-8.49 10.03,5.55 0,16.33 C -10.03,5.55 -10.90,-8.49 0,-16.33 Z" fill="#a877d1" fill-opacity="1.00" transform="translate(211.00 227.90) rotate(29.01)"/><path d="M 0,-19.11 C 11.45,-9.94 10.54,6.50 0,19.11 C -10.54,6.50 -11.45,-9.94 0,-19.11 Z" fill="#b992dc" fill-opacity="1.00" transform="translate(213.55 215.68) rotate(44.14)"/><path d="M 0,-13.15 C 8.78,-6.84 8.08,4.47 0,13.15 C -8.08,4.47 -8.78,-6.84 0,-13.15 Z" fill="#7a45a8" fill-opacity="0.26" transform="translate(204.68 268.85) rotate(-15.51)"/><path d="M 0,-16.12 C 8.96,-8.38 8.25,5.48 0,16.12 C -8.25,5.48 -8.96,-8.38 0,-16.12 Z" fill="#7a45a8" fill-opacity="0.26" transform="translate(206.32 260.21) rotate(0.30)"/><path d="M 0,-12.51 C 8.99,-6.51 8.27,4.25 0,12.51 C -8.27,4.25 -8.99,-6.51 0,-12.51 Z" fill="#7a45a8" fill-opacity="0.26" transform="translate(207.89 250.97) rotate(7.91)"/><path d="M 0,-15.54 C 10.48,-8.08 9.64,5.28 0,15.54 C -9.64,5.28 -10.48,-8.08 0,-15.54 Z" fill="#7a45a8" fill-opacity="0.26" transform="translate(209.80 241.75) rotate(26.05)"/><path d="M 0,-15.00 C 9.18,-7.80 8.44,5.10 0,15.00 C -8.44,5.10 -9.18,-7.80 0,-15.00 Z" fill="#7a45a8" fill-opacity="0.26" transform="translate(211.16 233.09) rotate(38.79)"/><path d="M 0,-5.93 C 3.79,-3.08 3.48,2.02 0,5.93 C -3.48,2.02 -3.79,-3.08 0,-5.93 Z" fill="#c8a9e2" fill-opacity="0.75" transform="translate(202.10 265.24) rotate(-15.51)"/><path d="M 0,-5.64 C 3.88,-2.93 3.57,1.92 0,5.64 C -3.57,1.92 -3.88,-2.93 0,-5.64 Z" fill="#dfcbef" fill-opacity="0.75" transform="translate(205.25 247.53) rotate(7.91)"/><path d="M 0,-7.01 C 4.52,-3.64 4.16,2.38 0,7.01 C -4.16,2.38 -4.52,-3.64 0,-7.01 Z" fill="#dfcbef" fill-opacity="0.75" transform="translate(206.72 237.49) rotate(26.05)"/><path d="M 0,-6.76 C 3.96,-3.52 3.64,2.30 0,6.76 C -3.64,2.30 -3.96,-3.52 0,-6.76 Z" fill="#dfcbef" fill-opacity="0.75" transform="translate(208.46 228.97) rotate(38.79)"/><path d="M 0,-12.89 C 8.61,-6.70 7.92,4.38 0,12.89 C -7.92,4.38 -8.61,-6.70 0,-12.89 Z" fill="#995ec9" fill-opacity="1.00" transform="translate(203.48 267.31) rotate(-15.51)"/><path d="M 0,-15.81 C 8.79,-8.22 8.08,5.37 0,15.81 C -8.08,5.37 -8.79,-8.22 0,-15.81 Z" fill="#b992dc" fill-opacity="1.00" transform="translate(205.09 258.31) rotate(0.30)"/><path d="M 0,-12.27 C 8.81,-6.38 8.11,4.17 0,12.27 C -8.11,4.17 -8.81,-6.38 0,-12.27 Z" fill="#b992dc" fill-opacity="1.00" transform="translate(206.66 249.50) rotate(7.91)"/><path d="M 0,-15.23 C 10.27,-7.92 9.45,5.18 0,15.23 C -9.45,5.18 -10.27,-7.92 0,-15.23 Z" fill="#b992dc" fill-opacity="1.00" transform="translate(208.37 239.93) rotate(26.05)"/><path d="M 0,-14.70 C 9.00,-7.65 8.28,5.00 0,14.70 C -8.28,5.00 -9.00,-7.65 0,-14.70 Z" fill="#b992dc" fill-opacity="1.00" transform="translate(209.90 231.32) rotate(38.79)"/><path d="M 0,-11.04 C 8.17,-5.74 7.52,3.75 0,11.04 C -7.52,3.75 -8.17,-5.74 0,-11.04 Z" fill="#7a45a8" fill-opacity="0.26" transform="translate(204.04 274.99) rotate(-11.11)"/><path d="M 0,-11.49 C 7.39,-5.97 6.79,3.91 0,11.49 C -6.79,3.91 -7.39,-5.97 0,-11.49 Z" fill="#7a45a8" fill-opacity="0.26" transform="translate(205.10 267.26) rotate(-4.76)"/><path d="M 0,-11.73 C 7.97,-6.10 7.33,3.99 0,11.73 C -7.33,3.99 -7.97,-6.10 0,-11.73 Z" fill="#7a45a8" fill-opacity="0.26" transform="translate(206.05 261.39) rotate(6.10)"/><path d="M 0,-11.60 C 7.84,-6.03 7.22,3.94 0,11.60 C -7.22,3.94 -7.84,-6.03 0,-11.60 Z" fill="#7a45a8" fill-opacity="0.26" transform="translate(207.23 253.35) rotate(16.72)"/><path d="M 0,-10.35 C 6.89,-5.38 6.34,3.52 0,10.35 C -6.34,3.52 -6.89,-5.38 0,-10.35 Z" fill="#7a45a8" fill-opacity="0.26" transform="translate(208.07 246.67) rotate(27.80)"/><path d="M 0,-5.18 C 3.19,-2.69 2.93,1.76 0,5.18 C -2.93,1.76 -3.19,-2.69 0,-5.18 Z" fill="#c8a9e2" fill-opacity="0.75" transform="translate(202.92 264.10) rotate(-4.76)"/><path d="M 0,-5.23 C 3.38,-2.72 3.11,1.78 0,5.23 C -3.11,1.78 -3.38,-2.72 0,-5.23 Z" fill="#c8a9e2" fill-opacity="0.75" transform="translate(204.92 250.16) rotate(16.72)"/><path d="M 0,-10.82 C 8.01,-5.63 7.37,3.68 0,10.82 C -7.37,3.68 -8.01,-5.63 0,-10.82 Z" fill="#995ec9" fill-opacity="1.00" transform="translate(202.92 273.70) rotate(-11.11)"/><path d="M 0,-11.26 C 7.24,-5.86 6.66,3.83 0,11.26 C -6.66,3.83 -7.24,-5.86 0,-11.26 Z" fill="#995ec9" fill-opacity="1.00" transform="translate(204.08 265.90) rotate(-4.76)"/><path d="M 0,-11.50 C 7.81,-5.98 7.19,3.91 0,11.50 C -7.19,3.91 -7.81,-5.98 0,-11.50 Z" fill="#a877d1" fill-opacity="1.00" transform="translate(204.96 260.01) rotate(6.10)"/><path d="M 0,-11.37 C 7.69,-5.91 7.08,3.87 0,11.37 C -7.08,3.87 -7.69,-5.91 0,-11.37 Z" fill="#995ec9" fill-opacity="1.00" transform="translate(206.15 251.98) rotate(16.72)"/><path d="M 0,-10.15 C 6.75,-5.28 6.21,3.45 0,10.15 C -6.21,3.45 -6.75,-5.28 0,-10.15 Z" fill="#a877d1" fill-opacity="1.00" transform="translate(207.13 245.45) rotate(27.80)"/><path d="M 273.90,460.42 L 275.47,453.46 L 277.12,446.62 L 278.84,439.91 L 280.64,433.31 L 282.51,426.83 L 284.46,420.46 L 286.48,414.21 L 288.57,408.07 L 290.72,402.04 L 292.95,396.11 L 295.24,390.30 L 297.60,384.59 L 300.02,378.98 L 302.51,373.47 L 305.06,368.07 L 307.67,362.76 L 310.34,357.55 L 313.06,352.43 L 315.85,347.40 L 318.69,342.47 L 321.59,337.62 L 324.54,332.86 L 327.54,328.19 L 330.59,323.60 L 333.70,319.09 L 336.85,314.67 L 340.05,310.32 L 343.30,306.05 L 346.59,301.86 L 349.93,297.73 L 353.31,293.68 L 356.73,289.71 L 360.20,285.80 L 363.70,281.95 L 367.24,278.17 L 370.81,274.46 L 374.43,270.81 L 378.07,267.21 L 381.75,263.68 L 385.47,260.20 L 389.21,256.78 L 392.98,253.41 L 396.78,250.09 L 400.61,246.82 L 404.46,243.60 L 408.34,240.43 L 407.66,239.57 L 403.73,242.71 L 399.83,245.89 L 395.95,249.12 L 392.10,252.40 L 388.28,255.73 L 384.48,259.12 L 380.72,262.57 L 376.98,266.07 L 373.27,269.64 L 369.60,273.26 L 365.97,276.95 L 362.37,280.71 L 358.80,284.53 L 355.27,288.42 L 351.79,292.38 L 348.34,296.41 L 344.94,300.52 L 341.58,304.70 L 338.26,308.96 L 334.99,313.30 L 331.76,317.72 L 328.59,322.22 L 325.46,326.81 L 322.38,331.48 L 319.36,336.25 L 316.39,341.10 L 313.47,346.04 L 310.61,351.08 L 307.81,356.21 L 305.06,361.43 L 302.38,366.76 L 299.75,372.18 L 297.19,377.71 L 294.69,383.34 L 292.25,389.08 L 289.88,394.92 L 287.58,400.87 L 285.35,406.93 L 283.19,413.10 L 281.09,419.39 L 279.07,425.79 L 277.13,432.30 L 275.25,438.94 L 273.46,445.70 L 271.74,452.57 L 270.10,459.58 Z" fill="url(#stemGrad)"/><path d="M 0,-3.61 C 2.10,-1.88 1.93,1.23 0,3.61 C -1.93,1.23 -2.10,-1.88 0,-3.61 Z" fill="#7a45a8" fill-opacity="0.26" transform="translate(406.10 242.18) rotate(40.34)"/><path d="M 0,-3.32 C 2.09,-1.73 1.92,1.13 0,3.32 C -1.92,1.13 -2.09,-1.73 0,-3.32 Z" fill="#7a45a8" fill-opacity="0.26" transform="translate(408.87 239.93) rotate(46.37)"/><path d="M 0,-3.71 C 2.34,-1.93 2.15,1.26 0,3.71 C -2.15,1.26 -2.34,-1.93 0,-3.71 Z" fill="#7a45a8" fill-opacity="0.26" transform="translate(410.61 238.60) rotate(62.70)"/><path d="M 0,-3.54 C 2.05,-1.84 1.89,1.20 0,3.54 C -1.89,1.20 -2.05,-1.84 0,-3.54 Z" fill="#b992dc" fill-opacity="1.00" transform="translate(405.81 241.75) rotate(40.34)"/><path d="M 0,-3.25 C 2.05,-1.69 1.89,1.11 0,3.25 C -1.89,1.11 -2.05,-1.69 0,-3.25 Z" fill="#cbb0e5" fill-opacity="1.00" transform="translate(408.58 239.54) rotate(46.37)"/><path d="M 0,-3.64 C 2.29,-1.89 2.11,1.24 0,3.64 C -2.11,1.24 -2.29,-1.89 0,-3.64 Z" fill="#b992dc" fill-opacity="1.00" transform="translate(410.29 238.17) rotate(62.70)"/><path d="M 0,-6.79 C 4.84,-3.53 4.46,2.31 0,6.79 C -4.46,2.31 -4.84,-3.53 0,-6.79 Z" fill="#7a45a8" fill-opacity="0.26" transform="translate(397.16 250.25) rotate(36.48)"/><path d="M 0,-7.87 C 5.59,-4.09 5.14,2.68 0,7.87 C -5.14,2.68 -5.59,-4.09 0,-7.87 Z" fill="#7a45a8" fill-opacity="0.26" transform="translate(400.84 247.40) rotate(46.22)"/><path d="M 0,-7.12 C 5.19,-3.70 4.78,2.42 0,7.12 C -4.78,2.42 -5.19,-3.70 0,-7.12 Z" fill="#7a45a8" fill-opacity="0.26" transform="translate(405.55 243.36) rotate(67.99)"/><path d="M 0,-3.06 C 2.09,-1.59 1.92,1.04 0,3.06 C -1.92,1.04 -2.09,-1.59 0,-3.06 Z" fill="#f2e8f9" fill-opacity="0.75" transform="translate(395.73 248.39) rotate(36.48)"/><path d="M 0,-6.66 C 4.75,-3.46 4.37,2.26 0,6.66 C -4.37,2.26 -4.75,-3.46 0,-6.66 Z" fill="#dcc8ee" fill-opacity="1.00" transform="translate(396.49 249.45) rotate(36.48)"/><path d="M 0,-7.72 C 5.48,-4.01 5.04,2.62 0,7.72 C -5.04,2.62 -5.48,-4.01 0,-7.72 Z" fill="#dcc8ee" fill-opacity="1.00" transform="translate(400.07 246.47) rotate(46.22)"/><path d="M 0,-6.98 C 5.09,-3.63 4.68,2.37 0,6.98 C -4.68,2.37 -5.09,-3.63 0,-6.98 Z" fill="#dcc8ee" fill-opacity="1.00" transform="translate(404.83 242.52) rotate(67.99)"/><path d="M 0,-9.61 C 6.34,-5.00 5.83,3.27 0,9.61 C -5.83,3.27 -6.34,-5.00 0,-9.61 Z" fill="#7a45a8" fill-opacity="0.26" transform="translate(390.59 256.47) rotate(26.03)"/><path d="M 0,-10.12 C 5.62,-5.26 5.17,3.44 0,10.12 C -5.17,3.44 -5.62,-5.26 0,-10.12 Z" fill="#7a45a8" fill-opacity="0.26" transform="translate(393.88 253.60) rotate(50.05)"/><path d="M 0,-9.79 C 6.05,-5.09 5.57,3.33 0,9.79 C -5.57,3.33 -6.05,-5.09 0,-9.79 Z" fill="#7a45a8" fill-opacity="0.26" transform="translate(398.79 249.36) rotate(72.08)"/><path d="M 0,-4.33 C 2.73,-2.25 2.52,1.47 0,4.33 C -2.52,1.47 -2.73,-2.25 0,-4.33 Z" fill="#dfcbef" fill-opacity="0.75" transform="translate(388.73 253.83) rotate(26.03)"/><path d="M 0,-9.42 C 6.22,-4.90 5.72,3.20 0,9.42 C -5.72,3.20 -6.22,-4.90 0,-9.42 Z" fill="#b992dc" fill-opacity="1.00" transform="translate(389.72 255.34) rotate(26.03)"/><path d="M 0,-9.92 C 5.51,-5.16 5.07,3.37 0,9.92 C -5.07,3.37 -5.51,-5.16 0,-9.92 Z" fill="#dcc8ee" fill-opacity="1.00" transform="translate(393.11 252.41) rotate(50.05)"/><path d="M 0,-9.60 C 5.93,-4.99 5.46,3.26 0,9.60 C -5.46,3.26 -5.93,-4.99 0,-9.60 Z" fill="#b992dc" fill-opacity="1.00" transform="translate(397.96 248.21) rotate(72.08)"/><path d="M 0,-11.80 C 6.44,-6.14 5.93,4.01 0,11.80 C -5.93,4.01 -6.44,-6.14 0,-11.80 Z" fill="#7a45a8" fill-opacity="0.26" transform="translate(379.88 266.45) rotate(28.78)"/><path d="M 0,-10.95 C 7.24,-5.69 6.66,3.72 0,10.95 C -6.66,3.72 -7.24,-5.69 0,-10.95 Z" fill="#7a45a8" fill-opacity="0.26" transform="translate(385.13 261.70) rotate(39.67)"/><path d="M 0,-10.02 C 7.56,-5.21 6.95,3.41 0,10.02 C -6.95,3.41 -7.56,-5.21 0,-10.02 Z" fill="#7a45a8" fill-opacity="0.26" transform="translate(390.96 256.36) rotate(58.89)"/><path d="M 0,-11.95 C 7.48,-6.21 6.89,4.06 0,11.95 C -6.89,4.06 -7.48,-6.21 0,-11.95 Z" fill="#7a45a8" fill-opacity="0.26" transform="translate(396.17 251.87) rotate(65.05)"/><path d="M 0,-5.32 C 2.78,-2.77 2.56,1.81 0,5.32 C -2.56,1.81 -2.78,-2.77 0,-5.32 Z" fill="#e9dbf4" fill-opacity="0.75" transform="translate(377.98 263.21) rotate(28.78)"/><path d="M 0,-4.94 C 3.12,-2.57 2.87,1.68 0,4.94 C -2.87,1.68 -3.12,-2.57 0,-4.94 Z" fill="#dfcbef" fill-opacity="0.75" transform="translate(383.00 258.69) rotate(39.67)"/><path d="M 0,-4.52 C 3.26,-2.35 3.00,1.54 0,4.52 C -3.00,1.54 -3.26,-2.35 0,-4.52 Z" fill="#e9dbf4" fill-opacity="0.75" transform="translate(388.73 253.61) rotate(58.89)"/><path d="M 0,-11.57 C 6.32,-6.02 5.81,3.93 0,11.57 C -5.81,3.93 -6.32,-6.02 0,-11.57 Z" fill="#cbb0e5" fill-opacity="1.00" transform="translate(379.00 265.06) rotate(28.78)"/><path d="M 0,-10.74 C 7.10,-5.58 6.53,3.65 0,10.74 C -6.53,3.65 -7.10,-5.58 0,-10.74 Z" fill="#b992dc" fill-opacity="1.00" transform="translate(384.14 260.41) rotate(39.67)"/><path d="M 0,-9.83 C 7.41,-5.11 6.82,3.34 0,9.83 C -6.82,3.34 -7.41,-5.11 0,-9.83 Z" fill="#cbb0e5" fill-opacity="1.00" transform="translate(389.92 255.18) rotate(58.89)"/><path d="M 0,-11.71 C 7.34,-6.09 6.75,3.98 0,11.71 C -6.75,3.98 -7.34,-6.09 0,-11.71 Z" fill="#dcc8ee" fill-opacity="1.00" transform="translate(395.14 250.46) rotate(65.05)"/><path d="M 0,-12.71 C 8.60,-6.61 7.91,4.32 0,12.71 C -7.91,4.32 -8.60,-6.61 0,-12.71 Z" fill="#7a45a8" fill-opacity="0.26" transform="translate(371.81 274.64) rotate(22.56)"/><path d="M 0,-10.78 C 8.78,-5.61 8.07,3.67 0,10.78 C -8.07,3.67 -8.78,-5.61 0,-10.78 Z" fill="#7a45a8" fill-opacity="0.26" transform="translate(378.01 268.57) rotate(41.29)"/><path d="M 0,-10.42 C 7.40,-5.42 6.81,3.54 0,10.42 C -6.81,3.54 -7.40,-5.42 0,-10.42 Z" fill="#7a45a8" fill-opacity="0.26" transform="translate(384.25 262.45) rotate(58.67)"/><path d="M 0,-13.37 C 8.52,-6.95 7.84,4.55 0,13.37 C -7.84,4.55 -8.52,-6.95 0,-13.37 Z" fill="#7a45a8" fill-opacity="0.26" transform="translate(389.66 257.83) rotate(64.62)"/><path d="M 0,-5.73 C 3.71,-2.98 3.41,1.95 0,5.73 C -3.41,1.95 -3.71,-2.98 0,-5.73 Z" fill="#e9dbf4" fill-opacity="0.75" transform="translate(369.28 271.15) rotate(22.56)"/><path d="M 0,-4.86 C 3.79,-2.53 3.48,1.65 0,4.86 C -3.48,1.65 -3.79,-2.53 0,-4.86 Z" fill="#dfcbef" fill-opacity="0.75" transform="translate(375.43 265.61) rotate(41.29)"/><path d="M 0,-4.70 C 3.19,-2.44 2.94,1.60 0,4.70 C -2.94,1.60 -3.19,-2.44 0,-4.70 Z" fill="#dfcbef" fill-opacity="0.75" transform="translate(382.07 259.59) rotate(58.67)"/><path d="M 0,-6.03 C 3.68,-3.14 3.38,2.05 0,6.03 C -3.38,2.05 -3.68,-3.14 0,-6.03 Z" fill="#e9dbf4" fill-opacity="0.75" transform="translate(387.16 254.16) rotate(64.62)"/><path d="M 0,-12.46 C 8.43,-6.48 7.76,4.24 0,12.46 C -7.76,4.24 -8.43,-6.48 0,-12.46 Z" fill="#cbb0e5" fill-opacity="1.00" transform="translate(370.63 273.14) rotate(22.56)"/><path d="M 0,-10.57 C 8.60,-5.50 7.92,3.59 0,10.57 C -7.92,3.59 -8.60,-5.50 0,-10.57 Z" fill="#b992dc" fill-opacity="1.00" transform="translate(376.81 267.31) rotate(41.29)"/><path d="M 0,-10.22 C 7.26,-5.31 6.68,3.47 0,10.22 C -6.68,3.47 -7.26,-5.31 0,-10.22 Z" fill="#b992dc" fill-opacity="1.00" transform="translate(383.23 261.23) rotate(58.67)"/><path d="M 0,-13.11 C 8.35,-6.82 7.69,4.46 0,13.11 C -7.69,4.46 -8.35,-6.82 0,-13.11 Z" fill="#cbb0e5" fill-opacity="1.00" transform="translate(388.49 256.25) rotate(64.62)"/><path d="M 0,-11.36 C 9.63,-5.91 8.86,3.86 0,11.36 C -8.86,3.86 -9.63,-5.91 0,-11.36 Z" fill="#7a45a8" fill-opacity="0.26" transform="translate(361.72 284.89) rotate(17.30)"/><path d="M 0,-12.23 C 9.65,-6.36 8.88,4.16 0,12.23 C -8.88,4.16 -9.65,-6.36 0,-12.23 Z" fill="#7a45a8" fill-opacity="0.26" transform="translate(368.16 278.61) rotate(37.50)"/><path d="M 0,-13.98 C 9.08,-7.27 8.35,4.75 0,13.98 C -8.35,4.75 -9.08,-7.27 0,-13.98 Z" fill="#7a45a8" fill-opacity="0.26" transform="translate(374.08 272.87) rotate(43.95)"/><path d="M 0,-14.20 C 9.76,-7.39 8.97,4.83 0,14.20 C -8.97,4.83 -9.76,-7.39 0,-14.20 Z" fill="#7a45a8" fill-opacity="0.26" transform="translate(380.30 266.83) rotate(51.74)"/><path d="M 0,-14.13 C 9.43,-7.35 8.67,4.81 0,14.13 C -8.67,4.81 -9.43,-7.35 0,-14.13 Z" fill="#7a45a8" fill-opacity="0.26" transform="translate(387.48 259.65) rotate(62.97)"/><path d="M 0,-5.12 C 4.15,-2.66 3.82,1.74 0,5.12 C -3.82,1.74 -4.15,-2.66 0,-5.12 Z" fill="#d4bbe9" fill-opacity="0.75" transform="translate(358.89 281.78) rotate(17.30)"/><path d="M 0,-5.51 C 4.16,-2.87 3.83,1.88 0,5.51 C -3.83,1.88 -4.16,-2.87 0,-5.51 Z" fill="#dfcbef" fill-opacity="0.75" transform="translate(365.33 275.25) rotate(37.50)"/><path d="M 0,-6.41 C 4.21,-3.33 3.87,2.18 0,6.41 C -3.87,2.18 -4.21,-3.33 0,-6.41 Z" fill="#dfcbef" fill-opacity="0.75" transform="translate(377.43 262.93) rotate(51.74)"/><path d="M 0,-11.14 C 9.44,-5.79 8.68,3.79 0,11.14 C -8.68,3.79 -9.44,-5.79 0,-11.14 Z" fill="#a877d1" fill-opacity="1.00" transform="translate(360.40 283.56) rotate(17.30)"/><path d="M 0,-11.99 C 9.46,-6.23 8.70,4.08 0,11.99 C -8.70,4.08 -9.46,-6.23 0,-11.99 Z" fill="#b992dc" fill-opacity="1.00" transform="translate(366.84 277.17) rotate(37.50)"/><path d="M 0,-13.70 C 8.90,-7.12 8.19,4.66 0,13.70 C -8.19,4.66 -8.90,-7.12 0,-13.70 Z" fill="#b992dc" fill-opacity="1.00" transform="translate(372.83 271.23) rotate(43.95)"/><path d="M 0,-13.93 C 9.56,-7.24 8.80,4.73 0,13.93 C -8.80,4.73 -9.56,-7.24 0,-13.93 Z" fill="#b992dc" fill-opacity="1.00" transform="translate(378.96 265.16) rotate(51.74)"/><path d="M 0,-13.86 C 9.24,-7.20 8.50,4.71 0,13.86 C -8.50,4.71 -9.24,-7.20 0,-13.86 Z" fill="#a877d1" fill-opacity="1.00" transform="translate(386.19 257.99) rotate(62.97)"/><path d="M 0,-13.46 C 10.53,-7.00 9.69,4.58 0,13.46 C -9.69,4.58 -10.53,-7.00 0,-13.46 Z" fill="#7a45a8" fill-opacity="0.26" transform="translate(355.12 292.61) rotate(18.64)"/><path d="M 0,-15.78 C 8.84,-8.20 8.13,5.36 0,15.78 C -8.13,5.36 -8.84,-8.20 0,-15.78 Z" fill="#7a45a8" fill-opacity="0.26" transform="translate(360.79 286.73) rotate(30.73)"/><path d="M 0,-15.90 C 8.71,-8.27 8.01,5.41 0,15.90 C -8.01,5.41 -8.71,-8.27 0,-15.90 Z" fill="#7a45a8" fill-opacity="0.26" transform="translate(367.43 279.81) rotate(43.99)"/><path d="M 0,-13.41 C 9.35,-6.97 8.60,4.56 0,13.41 C -8.60,4.56 -9.35,-6.97 0,-13.41 Z" fill="#7a45a8" fill-opacity="0.26" transform="translate(374.89 271.84) rotate(56.84)"/><path d="M 0,-15.52 C 8.74,-8.07 8.04,5.28 0,15.52 C -8.04,5.28 -8.74,-8.07 0,-15.52 Z" fill="#7a45a8" fill-opacity="0.26" transform="translate(380.26 266.41) rotate(65.47)"/><path d="M 0,-7.17 C 3.76,-3.73 3.46,2.44 0,7.17 C -3.46,2.44 -3.76,-3.73 0,-7.17 Z" fill="#e9dbf4" fill-opacity="0.75" transform="translate(364.87 275.45) rotate(43.99)"/><path d="M 0,-13.20 C 10.33,-6.86 9.50,4.49 0,13.20 C -9.50,4.49 -10.33,-6.86 0,-13.20 Z" fill="#cbb0e5" fill-opacity="1.00" transform="translate(353.67 291.03) rotate(18.64)"/><path d="M 0,-15.47 C 8.66,-8.04 7.97,5.26 0,15.47 C -7.97,5.26 -8.66,-8.04 0,-15.47 Z" fill="#b992dc" fill-opacity="1.00" transform="translate(359.58 284.88) rotate(30.73)"/><path d="M 0,-15.59 C 8.54,-8.10 7.85,5.30 0,15.59 C -7.85,5.30 -8.54,-8.10 0,-15.59 Z" fill="#cbb0e5" fill-opacity="1.00" transform="translate(366.24 277.94) rotate(43.99)"/><path d="M 0,-13.15 C 9.16,-6.84 8.43,4.47 0,13.15 C -8.43,4.47 -9.16,-6.84 0,-13.15 Z" fill="#cbb0e5" fill-opacity="1.00" transform="translate(373.61 270.27) rotate(56.84)"/><path d="M 0,-15.22 C 8.57,-7.91 7.88,5.17 0,15.22 C -7.88,5.17 -8.57,-7.91 0,-15.22 Z" fill="#b992dc" fill-opacity="1.00" transform="translate(379.06 264.59) rotate(65.47)"/><path d="M 0,-16.60 C 9.35,-8.63 8.60,5.64 0,16.60 C -8.60,5.64 -9.35,-8.63 0,-16.60 Z" fill="#7a45a8" fill-opacity="0.26" transform="translate(347.35 301.84) rotate(14.57)"/><path d="M 0,-15.58 C 10.67,-8.10 9.82,5.30 0,15.58 C -9.82,5.30 -10.67,-8.10 0,-15.58 Z" fill="#7a45a8" fill-opacity="0.26" transform="translate(355.16 293.36) rotate(27.20)"/><path d="M 0,-16.70 C 11.17,-8.69 10.28,5.68 0,16.70 C -10.28,5.68 -11.17,-8.69 0,-16.70 Z" fill="#7a45a8" fill-opacity="0.26" transform="translate(361.34 286.79) rotate(39.14)"/><path d="M 0,-14.81 C 10.46,-7.70 9.63,5.03 0,14.81 C -9.63,5.03 -10.46,-7.70 0,-14.81 Z" fill="#7a45a8" fill-opacity="0.26" transform="translate(367.81 279.36) rotate(60.17)"/><path d="M 0,-13.57 C 9.64,-7.06 8.87,4.62 0,13.57 C -8.87,4.62 -9.64,-7.06 0,-13.57 Z" fill="#7a45a8" fill-opacity="0.26" transform="translate(374.08 272.22) rotate(72.14)"/><path d="M 0,-7.49 C 4.03,-3.89 3.71,2.55 0,7.49 C -3.71,2.55 -4.03,-3.89 0,-7.49 Z" fill="#d4bbe9" fill-opacity="0.75" transform="translate(344.60 297.28) rotate(14.57)"/><path d="M 0,-7.03 C 4.60,-3.65 4.24,2.39 0,7.03 C -4.24,2.39 -4.60,-3.65 0,-7.03 Z" fill="#d4bbe9" fill-opacity="0.75" transform="translate(352.02 289.08) rotate(27.20)"/><path d="M 0,-7.53 C 4.82,-3.92 4.43,2.56 0,7.53 C -4.43,2.56 -4.82,-3.92 0,-7.53 Z" fill="#dfcbef" fill-opacity="0.75" transform="translate(358.05 282.20) rotate(39.14)"/><path d="M 0,-6.68 C 4.51,-3.47 4.15,2.27 0,6.68 C -4.15,2.27 -4.51,-3.47 0,-6.68 Z" fill="#dfcbef" fill-opacity="0.75" transform="translate(364.73 275.30) rotate(60.17)"/><path d="M 0,-6.12 C 4.16,-3.18 3.82,2.08 0,6.12 C -3.82,2.08 -4.16,-3.18 0,-6.12 Z" fill="#d4bbe9" fill-opacity="0.75" transform="translate(371.25 268.49) rotate(72.14)"/><path d="M 0,-16.28 C 9.17,-8.46 8.43,5.53 0,16.28 C -8.43,5.53 -9.17,-8.46 0,-16.28 Z" fill="#a877d1" fill-opacity="1.00" transform="translate(346.07 299.88) rotate(14.57)"/><path d="M 0,-15.27 C 10.46,-7.94 9.63,5.19 0,15.27 C -9.63,5.19 -10.46,-7.94 0,-15.27 Z" fill="#a877d1" fill-opacity="1.00" transform="translate(353.70 291.52) rotate(27.20)"/><path d="M 0,-16.38 C 10.95,-8.52 10.07,5.57 0,16.38 C -10.07,5.57 -10.95,-8.52 0,-16.38 Z" fill="#b992dc" fill-opacity="1.00" transform="translate(359.81 284.82) rotate(39.14)"/><path d="M 0,-14.52 C 10.26,-7.55 9.44,4.94 0,14.52 C -9.44,4.94 -10.26,-7.55 0,-14.52 Z" fill="#b992dc" fill-opacity="1.00" transform="translate(366.37 277.62) rotate(60.17)"/><path d="M 0,-13.31 C 9.45,-6.92 8.69,4.52 0,13.31 C -8.69,4.52 -9.45,-6.92 0,-13.31 Z" fill="#a877d1" fill-opacity="1.00" transform="translate(372.76 270.62) rotate(72.14)"/><path d="M 0,-15.58 C 10.38,-8.10 9.55,5.30 0,15.58 C -9.55,5.30 -10.38,-8.10 0,-15.58 Z" fill="#7a45a8" fill-opacity="0.26" transform="translate(341.43 309.37) rotate(7.30)"/><path d="M 0,-17.58 C 11.79,-9.14 10.85,5.98 0,17.58 C -10.85,5.98 -11.79,-9.14 0,-17.58 Z" fill="#7a45a8" fill-opacity="0.26" transform="translate(348.75 301.36) rotate(22.79)"/><path d="M 0,-17.63 C 10.96,-9.17 10.08,5.99 0,17.63 C -10.08,5.99 -10.96,-9.17 0,-17.63 Z" fill="#7a45a8" fill-opacity="0.26" transform="translate(354.37 294.73) rotate(38.54)"/><path d="M 0,-14.78 C 10.51,-7.68 9.67,5.02 0,14.78 C -9.67,5.02 -10.51,-7.68 0,-14.78 Z" fill="#7a45a8" fill-opacity="0.26" transform="translate(361.45 286.14) rotate(48.81)"/><path d="M 0,-17.02 C 9.87,-8.85 9.08,5.79 0,17.02 C -9.08,5.79 -9.87,-8.85 0,-17.02 Z" fill="#7a45a8" fill-opacity="0.26" transform="translate(368.09 278.63) rotate(65.66)"/><path d="M 0,-7.03 C 4.48,-3.65 4.12,2.39 0,7.03 C -4.12,2.39 -4.48,-3.65 0,-7.03 Z" fill="#d4bbe9" fill-opacity="0.75" transform="translate(338.38 305.09) rotate(7.30)"/><path d="M 0,-7.95 C 4.73,-4.13 4.35,2.70 0,7.95 C -4.35,2.70 -4.73,-4.13 0,-7.95 Z" fill="#dfcbef" fill-opacity="0.75" transform="translate(351.15 289.89) rotate(38.54)"/><path d="M 0,-15.28 C 10.18,-7.94 9.37,5.19 0,15.28 C -9.37,5.19 -10.18,-7.94 0,-15.28 Z" fill="#a877d1" fill-opacity="1.00" transform="translate(340.00 307.54) rotate(7.30)"/><path d="M 0,-17.23 C 11.56,-8.96 10.63,5.86 0,17.23 C -10.63,5.86 -11.56,-8.96 0,-17.23 Z" fill="#b992dc" fill-opacity="1.00" transform="translate(347.14 299.29) rotate(22.79)"/><path d="M 0,-17.29 C 10.74,-8.99 9.88,5.88 0,17.29 C -9.88,5.88 -10.74,-8.99 0,-17.29 Z" fill="#b992dc" fill-opacity="1.00" transform="translate(352.87 292.66) rotate(38.54)"/><path d="M 0,-14.49 C 10.30,-7.53 9.48,4.93 0,14.49 C -9.48,4.93 -10.30,-7.53 0,-14.49 Z" fill="#b992dc" fill-opacity="1.00" transform="translate(360.01 284.40) rotate(48.81)"/><path d="M 0,-16.68 C 9.68,-8.67 8.91,5.67 0,16.68 C -8.91,5.67 -9.68,-8.67 0,-16.68 Z" fill="#b992dc" fill-opacity="1.00" transform="translate(366.73 276.62) rotate(65.66)"/><path d="M 0,-12.86 C 8.66,-6.69 7.97,4.37 0,12.86 C -7.97,4.37 -8.66,-6.69 0,-12.86 Z" fill="#7a45a8" fill-opacity="0.26" transform="translate(336.55 315.41) rotate(14.95)"/><path d="M 0,-15.25 C 8.22,-7.93 7.56,5.18 0,15.25 C -7.56,5.18 -8.22,-7.93 0,-15.25 Z" fill="#7a45a8" fill-opacity="0.26" transform="translate(343.01 307.72) rotate(28.69)"/><path d="M 0,-13.81 C 9.72,-7.18 8.94,4.69 0,13.81 C -8.94,4.69 -9.72,-7.18 0,-13.81 Z" fill="#7a45a8" fill-opacity="0.26" transform="translate(348.82 300.70) rotate(36.45)"/><path d="M 0,-14.21 C 10.00,-7.39 9.20,4.83 0,14.21 C -9.20,4.83 -10.00,-7.39 0,-14.21 Z" fill="#7a45a8" fill-opacity="0.26" transform="translate(354.29 294.10) rotate(53.14)"/><path d="M 0,-14.47 C 9.36,-7.53 8.61,4.92 0,14.47 C -8.61,4.92 -9.36,-7.53 0,-14.47 Z" fill="#7a45a8" fill-opacity="0.26" transform="translate(360.56 286.36) rotate(67.41)"/><path d="M 0,-5.80 C 3.74,-3.02 3.44,1.97 0,5.80 C -3.44,1.97 -3.74,-3.02 0,-5.80 Z" fill="#dfcbef" fill-opacity="0.75" transform="translate(334.00 311.88) rotate(14.95)"/><path d="M 0,-6.23 C 4.19,-3.24 3.86,2.12 0,6.23 C -3.86,2.12 -4.19,-3.24 0,-6.23 Z" fill="#d4bbe9" fill-opacity="0.75" transform="translate(345.96 296.91) rotate(36.45)"/><path d="M 0,-12.61 C 8.49,-6.56 7.81,4.29 0,12.61 C -7.81,4.29 -8.49,-6.56 0,-12.61 Z" fill="#b992dc" fill-opacity="1.00" transform="translate(335.36 313.89) rotate(14.95)"/><path d="M 0,-14.95 C 8.06,-7.77 7.41,5.08 0,14.95 C -7.41,5.08 -8.06,-7.77 0,-14.95 Z" fill="#995ec9" fill-opacity="1.00" transform="translate(341.88 305.93) rotate(28.69)"/><path d="M 0,-13.53 C 9.53,-7.04 8.77,4.60 0,13.53 C -8.77,4.60 -9.53,-7.04 0,-13.53 Z" fill="#a877d1" fill-opacity="1.00" transform="translate(347.48 299.08) rotate(36.45)"/><path d="M 0,-13.93 C 9.81,-7.24 9.02,4.74 0,13.93 C -9.02,4.74 -9.81,-7.24 0,-13.93 Z" fill="#995ec9" fill-opacity="1.00" transform="translate(352.92 292.43) rotate(53.14)"/><path d="M 0,-14.19 C 9.18,-7.38 8.44,4.82 0,14.19 C -8.44,4.82 -9.18,-7.38 0,-14.19 Z" fill="#a877d1" fill-opacity="1.00" transform="translate(359.27 284.66) rotate(67.41)"/><path d="M 0,-9.86 C 7.54,-5.13 6.94,3.35 0,9.86 C -6.94,3.35 -7.54,-5.13 0,-9.86 Z" fill="#7a45a8" fill-opacity="0.26" transform="translate(333.48 319.46) rotate(19.25)"/><path d="M 0,-11.46 C 6.21,-5.96 5.71,3.90 0,11.46 C -5.71,3.90 -6.21,-5.96 0,-11.46 Z" fill="#7a45a8" fill-opacity="0.26" transform="translate(337.14 314.68) rotate(26.89)"/><path d="M 0,-10.59 C 7.66,-5.51 7.05,3.60 0,10.59 C -7.05,3.60 -7.66,-5.51 0,-10.59 Z" fill="#7a45a8" fill-opacity="0.26" transform="translate(342.17 308.32) rotate(32.70)"/><path d="M 0,-11.31 C 6.83,-5.88 6.28,3.84 0,11.31 C -6.28,3.84 -6.83,-5.88 0,-11.31 Z" fill="#7a45a8" fill-opacity="0.26" transform="translate(346.22 303.01) rotate(43.22)"/><path d="M 0,-11.19 C 6.61,-5.82 6.08,3.80 0,11.19 C -6.08,3.80 -6.61,-5.82 0,-11.19 Z" fill="#7a45a8" fill-opacity="0.26" transform="translate(350.42 297.52) rotate(57.19)"/><path d="M 0,-4.77 C 3.31,-2.48 3.04,1.62 0,4.77 C -3.04,1.62 -3.31,-2.48 0,-4.77 Z" fill="#c8a9e2" fill-opacity="0.75" transform="translate(339.92 305.41) rotate(32.70)"/><path d="M 0,-9.67 C 7.40,-5.03 6.80,3.29 0,9.67 C -6.80,3.29 -7.40,-5.03 0,-9.67 Z" fill="#995ec9" fill-opacity="1.00" transform="translate(332.45 318.30) rotate(19.25)"/><path d="M 0,-11.24 C 6.09,-5.84 5.60,3.82 0,11.24 C -5.60,3.82 -6.09,-5.84 0,-11.24 Z" fill="#995ec9" fill-opacity="1.00" transform="translate(336.29 313.33) rotate(26.89)"/><path d="M 0,-10.38 C 7.51,-5.40 6.91,3.53 0,10.38 C -6.91,3.53 -7.51,-5.40 0,-10.38 Z" fill="#995ec9" fill-opacity="1.00" transform="translate(341.12 307.08) rotate(32.70)"/><path d="M 0,-11.09 C 6.69,-5.76 6.16,3.77 0,11.09 C -6.16,3.77 -6.69,-5.76 0,-11.09 Z" fill="#995ec9" fill-opacity="1.00" transform="translate(345.28 301.68) rotate(43.22)"/><path d="M 0,-10.97 C 6.48,-5.70 5.96,3.73 0,10.97 C -5.96,3.73 -6.48,-5.70 0,-10.97 Z" fill="#a877d1" fill-opacity="1.00" transform="translate(349.51 296.21) rotate(57.19)"/><path d="M 252.49,463.82 L 251.88,455.00 L 251.40,446.20 L 251.06,437.42 L 250.86,428.66 L 250.79,419.93 L 250.86,411.23 L 251.07,402.57 L 251.41,393.93 L 251.88,385.34 L 252.48,376.78 L 253.22,368.27 L 254.08,359.80 L 255.07,351.38 L 256.19,343.02 L 257.43,334.70 L 258.80,326.45 L 260.29,318.25 L 261.91,310.11 L 263.64,302.04 L 265.50,294.04 L 267.48,286.10 L 269.57,278.24 L 271.78,270.46 L 274.11,262.75 L 276.55,255.12 L 279.11,247.58 L 281.78,240.13 L 284.56,232.76 L 287.46,225.48 L 290.46,218.30 L 293.57,211.22 L 296.79,204.24 L 300.11,197.35 L 303.54,190.58 L 307.07,183.91 L 310.71,177.35 L 314.45,170.91 L 318.29,164.58 L 322.23,158.37 L 326.27,152.29 L 330.41,146.32 L 334.64,140.49 L 338.97,134.78 L 343.39,129.21 L 347.91,123.77 L 352.52,118.47 L 351.48,117.53 L 346.79,122.81 L 342.19,128.22 L 337.68,133.77 L 333.27,139.46 L 328.95,145.28 L 324.73,151.23 L 320.60,157.31 L 316.58,163.51 L 312.65,169.83 L 308.82,176.27 L 305.09,182.82 L 301.47,189.49 L 297.95,196.27 L 294.53,203.16 L 291.23,210.15 L 288.03,217.25 L 284.93,224.44 L 281.95,231.73 L 279.08,239.12 L 276.32,246.59 L 273.67,254.16 L 271.14,261.81 L 268.72,269.54 L 266.41,277.36 L 264.23,285.25 L 262.16,293.22 L 260.22,301.26 L 258.39,309.37 L 256.69,317.55 L 255.11,325.79 L 253.65,334.09 L 252.32,342.45 L 251.12,350.87 L 250.05,359.34 L 249.10,367.86 L 248.28,376.43 L 247.59,385.05 L 247.04,393.71 L 246.62,402.40 L 246.33,411.14 L 246.18,419.91 L 246.17,428.71 L 246.29,437.54 L 246.56,446.40 L 246.96,455.28 L 247.51,464.18 Z" fill="url(#stemGrad)"/><path d="M 0,-4.85 C 3.43,-2.52 3.16,1.65 0,4.85 C -3.16,1.65 -3.43,-2.52 0,-4.85 Z" fill="#7a45a8" fill-opacity="0.26" transform="translate(350.28 121.01) rotate(39.92)"/><path d="M 0,-4.11 C 2.88,-2.14 2.65,1.40 0,4.11 C -2.65,1.40 -2.88,-2.14 0,-4.11 Z" fill="#7a45a8" fill-opacity="0.26" transform="translate(351.87 119.06) rotate(38.85)"/><path d="M 0,-4.62 C 2.91,-2.40 2.68,1.57 0,4.62 C -2.68,1.57 -2.91,-2.40 0,-4.62 Z" fill="#7a45a8" fill-opacity="0.26" transform="translate(354.52 116.18) rotate(51.53)"/><path d="M 0,-2.08 C 1.26,-1.08 1.16,0.71 0,2.08 C -1.16,0.71 -1.26,-1.08 0,-2.08 Z" fill="#e9dbf4" fill-opacity="0.75" transform="translate(353.67 114.92) rotate(51.53)"/><path d="M 0,-4.75 C 3.37,-2.47 3.10,1.62 0,4.75 C -3.10,1.62 -3.37,-2.47 0,-4.75 Z" fill="#dcc8ee" fill-opacity="1.00" transform="translate(349.81 120.44) rotate(39.92)"/><path d="M 0,-4.03 C 2.82,-2.10 2.60,1.37 0,4.03 C -2.60,1.37 -2.82,-2.10 0,-4.03 Z" fill="#cbb0e5" fill-opacity="1.00" transform="translate(351.48 118.58) rotate(38.85)"/><path d="M 0,-4.53 C 2.85,-2.36 2.63,1.54 0,4.53 C -2.63,1.54 -2.85,-2.36 0,-4.53 Z" fill="#cbb0e5" fill-opacity="1.00" transform="translate(354.12 115.64) rotate(51.53)"/><path d="M 0,-8.02 C 6.31,-4.17 5.80,2.73 0,8.02 C -5.80,2.73 -6.31,-4.17 0,-8.02 Z" fill="#7a45a8" fill-opacity="0.26" transform="translate(342.70 130.75) rotate(31.99)"/><path d="M 0,-7.84 C 5.70,-4.08 5.24,2.67 0,7.84 C -5.24,2.67 -5.70,-4.08 0,-7.84 Z" fill="#7a45a8" fill-opacity="0.26" transform="translate(346.90 125.65) rotate(36.38)"/><path d="M 0,-9.94 C 5.41,-5.17 4.98,3.38 0,9.94 C -4.98,3.38 -5.41,-5.17 0,-9.94 Z" fill="#7a45a8" fill-opacity="0.26" transform="translate(350.68 121.38) rotate(48.41)"/><path d="M 0,-4.48 C 2.33,-2.33 2.15,1.52 0,4.48 C -2.15,1.52 -2.33,-2.33 0,-4.48 Z" fill="#f2e8f9" fill-opacity="0.75" transform="translate(349.09 118.65) rotate(48.41)"/><path d="M 0,-7.86 C 6.19,-4.09 5.69,2.67 0,7.86 C -5.69,2.67 -6.19,-4.09 0,-7.86 Z" fill="#dcc8ee" fill-opacity="1.00" transform="translate(341.83 129.81) rotate(31.99)"/><path d="M 0,-7.69 C 5.59,-4.00 5.14,2.61 0,7.69 C -5.14,2.61 -5.59,-4.00 0,-7.69 Z" fill="#dcc8ee" fill-opacity="1.00" transform="translate(346.12 124.73) rotate(36.38)"/><path d="M 0,-9.74 C 5.30,-5.07 4.88,3.31 0,9.74 C -4.88,3.31 -5.30,-5.07 0,-9.74 Z" fill="#dcc8ee" fill-opacity="1.00" transform="translate(349.93 120.21) rotate(48.41)"/><path d="M 0,-12.53 C 6.61,-6.51 6.09,4.26 0,12.53 C -6.09,4.26 -6.61,-6.51 0,-12.53 Z" fill="#7a45a8" fill-opacity="0.26" transform="translate(335.76 140.13) rotate(24.26)"/><path d="M 0,-11.90 C 6.57,-6.19 6.05,4.05 0,11.90 C -6.05,4.05 -6.57,-6.19 0,-11.90 Z" fill="#7a45a8" fill-opacity="0.26" transform="translate(340.00 134.70) rotate(33.68)"/><path d="M 0,-12.41 C 7.68,-6.45 7.06,4.22 0,12.41 C -7.06,4.22 -7.68,-6.45 0,-12.41 Z" fill="#7a45a8" fill-opacity="0.26" transform="translate(345.43 128.10) rotate(57.91)"/><path d="M 0,-5.60 C 3.31,-2.91 3.05,1.90 0,5.60 C -3.05,1.90 -3.31,-2.91 0,-5.60 Z" fill="#f2e8f9" fill-opacity="0.75" transform="translate(343.18 124.69) rotate(57.91)"/><path d="M 0,-12.28 C 6.48,-6.39 5.97,4.18 0,12.28 C -5.97,4.18 -6.48,-6.39 0,-12.28 Z" fill="#cbb0e5" fill-opacity="1.00" transform="translate(334.85 138.66) rotate(24.26)"/><path d="M 0,-11.67 C 6.44,-6.07 5.93,3.97 0,11.67 C -5.93,3.97 -6.44,-6.07 0,-11.67 Z" fill="#b992dc" fill-opacity="1.00" transform="translate(339.10 133.30) rotate(33.68)"/><path d="M 0,-12.17 C 7.52,-6.33 6.92,4.14 0,12.17 C -6.92,4.14 -7.52,-6.33 0,-12.17 Z" fill="#dcc8ee" fill-opacity="1.00" transform="translate(344.38 126.64) rotate(57.91)"/><path d="M 0,-11.41 C 8.75,-5.93 8.05,3.88 0,11.41 C -8.05,3.88 -8.75,-5.93 0,-11.41 Z" fill="#7a45a8" fill-opacity="0.26" transform="translate(327.29 151.86) rotate(15.00)"/><path d="M 0,-12.60 C 8.23,-6.55 7.57,4.28 0,12.60 C -7.57,4.28 -8.23,-6.55 0,-12.60 Z" fill="#7a45a8" fill-opacity="0.26" transform="translate(332.51 144.90) rotate(27.49)"/><path d="M 0,-11.59 C 8.11,-6.03 7.46,3.94 0,11.59 C -7.46,3.94 -8.11,-6.03 0,-11.59 Z" fill="#7a45a8" fill-opacity="0.26" transform="translate(336.99 138.76) rotate(41.74)"/><path d="M 0,-13.35 C 8.35,-6.94 7.68,4.54 0,13.35 C -7.68,4.54 -8.35,-6.94 0,-13.35 Z" fill="#7a45a8" fill-opacity="0.26" transform="translate(341.82 132.53) rotate(52.66)"/><path d="M 0,-5.68 C 3.55,-2.95 3.27,1.93 0,5.68 C -3.27,1.93 -3.55,-2.95 0,-5.68 Z" fill="#e9dbf4" fill-opacity="0.75" transform="translate(330.09 141.44) rotate(27.49)"/><path d="M 0,-5.23 C 3.50,-2.72 3.22,1.78 0,5.23 C -3.22,1.78 -3.50,-2.72 0,-5.23 Z" fill="#dfcbef" fill-opacity="0.75" transform="translate(334.60 135.58) rotate(41.74)"/><path d="M 0,-6.02 C 3.60,-3.13 3.31,2.05 0,6.02 C -3.31,2.05 -3.60,-3.13 0,-6.02 Z" fill="#f2e8f9" fill-opacity="0.75" transform="translate(339.37 128.86) rotate(52.66)"/><path d="M 0,-11.18 C 8.58,-5.81 7.89,3.80 0,11.18 C -7.89,3.80 -8.58,-5.81 0,-11.18 Z" fill="#cbb0e5" fill-opacity="1.00" transform="translate(326.09 150.52) rotate(15.00)"/><path d="M 0,-12.35 C 8.07,-6.42 7.42,4.20 0,12.35 C -7.42,4.20 -8.07,-6.42 0,-12.35 Z" fill="#cbb0e5" fill-opacity="1.00" transform="translate(331.39 143.42) rotate(27.49)"/><path d="M 0,-11.36 C 7.95,-5.91 7.32,3.86 0,11.36 C -7.32,3.86 -7.95,-5.91 0,-11.36 Z" fill="#b992dc" fill-opacity="1.00" transform="translate(335.88 137.40) rotate(41.74)"/><path d="M 0,-13.09 C 8.18,-6.81 7.53,4.45 0,13.09 C -7.53,4.45 -8.18,-6.81 0,-13.09 Z" fill="#dcc8ee" fill-opacity="1.00" transform="translate(340.68 130.96) rotate(52.66)"/><path d="M 0,-14.75 C 9.37,-7.67 8.62,5.01 0,14.75 C -8.62,5.01 -9.37,-7.67 0,-14.75 Z" fill="#7a45a8" fill-opacity="0.26" transform="translate(320.79 162.02) rotate(17.19)"/><path d="M 0,-14.10 C 8.78,-7.33 8.08,4.79 0,14.10 C -8.08,4.79 -8.78,-7.33 0,-14.10 Z" fill="#7a45a8" fill-opacity="0.26" transform="translate(326.04 154.33) rotate(32.32)"/><path d="M 0,-13.69 C 9.22,-7.12 8.49,4.65 0,13.69 C -8.49,4.65 -9.22,-7.12 0,-13.69 Z" fill="#7a45a8" fill-opacity="0.26" transform="translate(331.08 147.18) rotate(46.15)"/><path d="M 0,-14.66 C 8.40,-7.62 7.73,4.98 0,14.66 C -7.73,4.98 -8.40,-7.62 0,-14.66 Z" fill="#7a45a8" fill-opacity="0.26" transform="translate(336.35 139.62) rotate(49.11)"/><path d="M 0,-6.65 C 4.04,-3.46 3.72,2.26 0,6.65 C -3.72,2.26 -4.04,-3.46 0,-6.65 Z" fill="#f2e8f9" fill-opacity="0.75" transform="translate(318.03 157.97) rotate(17.19)"/><path d="M 0,-6.17 C 3.98,-3.21 3.66,2.10 0,6.17 C -3.66,2.10 -3.98,-3.21 0,-6.17 Z" fill="#f2e8f9" fill-opacity="0.75" transform="translate(328.37 143.42) rotate(46.15)"/><path d="M 0,-14.46 C 9.18,-7.52 8.45,4.92 0,14.46 C -8.45,4.92 -9.18,-7.52 0,-14.46 Z" fill="#dcc8ee" fill-opacity="1.00" transform="translate(319.50 160.28) rotate(17.19)"/><path d="M 0,-13.82 C 8.61,-7.19 7.92,4.70 0,13.82 C -7.92,4.70 -8.61,-7.19 0,-13.82 Z" fill="#b992dc" fill-opacity="1.00" transform="translate(324.84 152.67) rotate(32.32)"/><path d="M 0,-13.42 C 9.04,-6.98 8.32,4.56 0,13.42 C -8.32,4.56 -9.04,-6.98 0,-13.42 Z" fill="#dcc8ee" fill-opacity="1.00" transform="translate(329.82 145.57) rotate(46.15)"/><path d="M 0,-14.37 C 8.24,-7.47 7.58,4.89 0,14.37 C -7.58,4.89 -8.24,-7.47 0,-14.37 Z" fill="#dcc8ee" fill-opacity="1.00" transform="translate(335.20 137.90) rotate(49.11)"/><path d="M 0,-13.15 C 9.39,-6.84 8.64,4.47 0,13.15 C -8.64,4.47 -9.39,-6.84 0,-13.15 Z" fill="#7a45a8" fill-opacity="0.26" transform="translate(314.71 171.52) rotate(6.97)"/><path d="M 0,-14.50 C 10.28,-7.54 9.46,4.93 0,14.50 C -9.46,4.93 -10.28,-7.54 0,-14.50 Z" fill="#7a45a8" fill-opacity="0.26" transform="translate(320.70 162.77) rotate(26.20)"/><path d="M 0,-13.37 C 11.06,-6.95 10.18,4.55 0,13.37 C -10.18,4.55 -11.06,-6.95 0,-13.37 Z" fill="#7a45a8" fill-opacity="0.26" transform="translate(326.42 154.12) rotate(40.08)"/><path d="M 0,-16.31 C 10.30,-8.48 9.47,5.55 0,16.31 C -9.47,5.55 -10.30,-8.48 0,-16.31 Z" fill="#7a45a8" fill-opacity="0.26" transform="translate(331.58 146.49) rotate(57.33)"/><path d="M 0,-5.93 C 4.05,-3.08 3.73,2.02 0,5.93 C -3.73,2.02 -4.05,-3.08 0,-5.93 Z" fill="#dfcbef" fill-opacity="0.75" transform="translate(311.94 167.91) rotate(6.97)"/><path d="M 0,-6.03 C 4.77,-3.14 4.39,2.05 0,6.03 C -4.39,2.05 -4.77,-3.14 0,-6.03 Z" fill="#dfcbef" fill-opacity="0.75" transform="translate(323.17 150.45) rotate(40.08)"/><path d="M 0,-7.36 C 4.44,-3.83 4.09,2.50 0,7.36 C -4.09,2.50 -4.44,-3.83 0,-7.36 Z" fill="#e9dbf4" fill-opacity="0.75" transform="translate(328.55 142.01) rotate(57.33)"/><path d="M 0,-12.89 C 9.21,-6.70 8.47,4.38 0,12.89 C -8.47,4.38 -9.21,-6.70 0,-12.89 Z" fill="#b992dc" fill-opacity="1.00" transform="translate(313.42 169.97) rotate(6.97)"/><path d="M 0,-14.21 C 10.08,-7.39 9.28,4.83 0,14.21 C -9.28,4.83 -10.08,-7.39 0,-14.21 Z" fill="#b992dc" fill-opacity="1.00" transform="translate(319.29 161.07) rotate(26.20)"/><path d="M 0,-13.11 C 10.85,-6.82 9.98,4.46 0,13.11 C -9.98,4.46 -10.85,-6.82 0,-13.11 Z" fill="#b992dc" fill-opacity="1.00" transform="translate(324.90 152.55) rotate(40.08)"/><path d="M 0,-15.99 C 10.10,-8.32 9.29,5.44 0,15.99 C -9.29,5.44 -10.10,-8.32 0,-15.99 Z" fill="#cbb0e5" fill-opacity="1.00" transform="translate(330.17 144.57) rotate(57.33)"/><path d="M 0,-17.80 C 11.84,-9.25 10.90,6.05 0,17.80 C -10.90,6.05 -11.84,-9.25 0,-17.80 Z" fill="#7a45a8" fill-opacity="0.26" transform="translate(309.33 181.82) rotate(15.01)"/><path d="M 0,-15.55 C 11.57,-8.09 10.64,5.29 0,15.55 C -10.64,5.29 -11.57,-8.09 0,-15.55 Z" fill="#7a45a8" fill-opacity="0.26" transform="translate(315.07 172.23) rotate(21.03)"/><path d="M 0,-16.15 C 10.52,-8.40 9.67,5.49 0,16.15 C -9.67,5.49 -10.52,-8.40 0,-16.15 Z" fill="#7a45a8" fill-opacity="0.26" transform="translate(321.07 162.40) rotate(34.71)"/><path d="M 0,-14.68 C 11.86,-7.63 10.91,4.99 0,14.68 C -10.91,4.99 -11.86,-7.63 0,-14.68 Z" fill="#7a45a8" fill-opacity="0.26" transform="translate(326.87 153.16) rotate(54.01)"/><path d="M 0,-8.03 C 5.11,-4.17 4.70,2.73 0,8.03 C -4.70,2.73 -5.11,-4.17 0,-8.03 Z" fill="#dfcbef" fill-opacity="0.75" transform="translate(305.84 176.93) rotate(15.01)"/><path d="M 0,-7.01 C 4.99,-3.65 4.59,2.39 0,7.01 C -4.59,2.39 -4.99,-3.65 0,-7.01 Z" fill="#dfcbef" fill-opacity="0.75" transform="translate(311.67 167.96) rotate(21.03)"/><path d="M 0,-17.45 C 11.61,-9.07 10.68,5.93 0,17.45 C -10.68,5.93 -11.61,-9.07 0,-17.45 Z" fill="#b992dc" fill-opacity="1.00" transform="translate(307.70 179.73) rotate(15.01)"/><path d="M 0,-15.25 C 11.34,-7.93 10.43,5.18 0,15.25 C -10.43,5.18 -11.34,-7.93 0,-15.25 Z" fill="#b992dc" fill-opacity="1.00" transform="translate(313.48 170.40) rotate(21.03)"/><path d="M 0,-15.83 C 10.31,-8.23 9.48,5.38 0,15.83 C -9.48,5.38 -10.31,-8.23 0,-15.83 Z" fill="#b992dc" fill-opacity="1.00" transform="translate(319.62 160.50) rotate(34.71)"/><path d="M 0,-14.39 C 11.63,-7.48 10.70,4.89 0,14.39 C -10.70,4.89 -11.63,-7.48 0,-14.39 Z" fill="#b992dc" fill-opacity="1.00" transform="translate(325.25 151.44) rotate(54.01)"/><path d="M 0,-18.71 C 12.69,-9.73 11.68,6.36 0,18.71 C -11.68,6.36 -12.69,-9.73 0,-18.71 Z" fill="#7a45a8" fill-opacity="0.26" transform="translate(301.34 196.43) rotate(2.03)"/><path d="M 0,-18.80 C 11.12,-9.78 10.23,6.39 0,18.80 C -10.23,6.39 -11.12,-9.78 0,-18.80 Z" fill="#7a45a8" fill-opacity="0.26" transform="translate(307.06 186.27) rotate(14.77)"/><path d="M 0,-19.72 C 10.65,-10.25 9.80,6.70 0,19.72 C -9.80,6.70 -10.65,-10.25 0,-19.72 Z" fill="#7a45a8" fill-opacity="0.26" transform="translate(312.08 177.64) rotate(33.17)"/><path d="M 0,-18.92 C 10.61,-9.84 9.76,6.43 0,18.92 C -9.76,6.43 -10.61,-9.84 0,-18.92 Z" fill="#7a45a8" fill-opacity="0.26" transform="translate(318.61 166.36) rotate(46.72)"/><path d="M 0,-15.05 C 10.57,-7.83 9.73,5.12 0,15.05 C -9.73,5.12 -10.57,-7.83 0,-15.05 Z" fill="#7a45a8" fill-opacity="0.26" transform="translate(324.14 156.40) rotate(51.69)"/><path d="M 0,-8.44 C 5.48,-4.39 5.04,2.87 0,8.44 C -5.04,2.87 -5.48,-4.39 0,-8.44 Z" fill="#dfcbef" fill-opacity="0.75" transform="translate(297.61 191.29) rotate(2.03)"/><path d="M 0,-8.48 C 4.80,-4.41 4.41,2.88 0,8.48 C -4.41,2.88 -4.80,-4.41 0,-8.48 Z" fill="#e9dbf4" fill-opacity="0.75" transform="translate(303.79 181.11) rotate(14.77)"/><path d="M 0,-8.89 C 4.59,-4.62 4.23,3.02 0,8.89 C -4.23,3.02 -4.59,-4.62 0,-8.89 Z" fill="#e9dbf4" fill-opacity="0.75" transform="translate(308.95 172.23) rotate(33.17)"/><path d="M 0,-18.34 C 12.44,-9.54 11.45,6.24 0,18.34 C -11.45,6.24 -12.44,-9.54 0,-18.34 Z" fill="#b992dc" fill-opacity="1.00" transform="translate(299.60 194.23) rotate(2.03)"/><path d="M 0,-18.43 C 10.90,-9.58 10.03,6.27 0,18.43 C -10.03,6.27 -10.90,-9.58 0,-18.43 Z" fill="#cbb0e5" fill-opacity="1.00" transform="translate(305.53 184.06) rotate(14.77)"/><path d="M 0,-19.33 C 10.44,-10.05 9.60,6.57 0,19.33 C -9.60,6.57 -10.44,-10.05 0,-19.33 Z" fill="#cbb0e5" fill-opacity="1.00" transform="translate(310.62 175.32) rotate(33.17)"/><path d="M 0,-18.55 C 10.40,-9.65 9.57,6.31 0,18.55 C -9.57,6.31 -10.40,-9.65 0,-18.55 Z" fill="#cbb0e5" fill-opacity="1.00" transform="translate(317.15 164.13) rotate(46.72)"/><path d="M 0,-14.75 C 10.36,-7.67 9.54,5.02 0,14.75 C -9.54,5.02 -10.36,-7.67 0,-14.75 Z" fill="#cbb0e5" fill-opacity="1.00" transform="translate(322.69 154.63) rotate(51.69)"/><path d="M 0,-19.93 C 13.10,-10.37 12.05,6.78 0,19.93 C -12.05,6.78 -13.10,-10.37 0,-19.93 Z" fill="#7a45a8" fill-opacity="0.26" transform="translate(296.39 206.68) rotate(10.14)"/><path d="M 0,-19.79 C 13.63,-10.29 12.54,6.73 0,19.79 C -12.54,6.73 -13.63,-10.29 0,-19.79 Z" fill="#7a45a8" fill-opacity="0.26" transform="translate(302.19 196.22) rotate(16.44)"/><path d="M 0,-20.53 C 12.07,-10.68 11.10,6.98 0,20.53 C -11.10,6.98 -12.07,-10.68 0,-20.53 Z" fill="#7a45a8" fill-opacity="0.26" transform="translate(308.03 185.25) rotate(31.03)"/><path d="M 0,-16.80 C 11.44,-8.74 10.52,5.71 0,16.80 C -10.52,5.71 -11.44,-8.74 0,-16.80 Z" fill="#7a45a8" fill-opacity="0.26" transform="translate(313.08 175.44) rotate(39.30)"/><path d="M 0,-20.39 C 10.79,-10.60 9.93,6.93 0,20.39 C -9.93,6.93 -10.79,-10.60 0,-20.39 Z" fill="#7a45a8" fill-opacity="0.26" transform="translate(319.21 164.51) rotate(58.94)"/><path d="M 0,-8.99 C 5.65,-4.67 5.20,3.06 0,8.99 C -5.20,3.06 -5.65,-4.67 0,-8.99 Z" fill="#dfcbef" fill-opacity="0.75" transform="translate(292.54 201.21) rotate(10.14)"/><path d="M 0,-8.93 C 5.88,-4.64 5.41,3.03 0,8.93 C -5.41,3.03 -5.88,-4.64 0,-8.93 Z" fill="#e9dbf4" fill-opacity="0.75" transform="translate(298.18 190.78) rotate(16.44)"/><path d="M 0,-7.58 C 4.93,-3.94 4.54,2.58 0,7.58 C -4.54,2.58 -4.93,-3.94 0,-7.58 Z" fill="#dfcbef" fill-opacity="0.75" transform="translate(309.72 170.82) rotate(39.30)"/><path d="M 0,-19.54 C 12.84,-10.16 11.82,6.64 0,19.54 C -11.82,6.64 -12.84,-10.16 0,-19.54 Z" fill="#b992dc" fill-opacity="1.00" transform="translate(294.59 204.34) rotate(10.14)"/><path d="M 0,-19.40 C 13.36,-10.09 12.29,6.60 0,19.40 C -12.29,6.60 -13.36,-10.09 0,-19.40 Z" fill="#cbb0e5" fill-opacity="1.00" transform="translate(300.32 193.89) rotate(16.44)"/><path d="M 0,-20.13 C 11.83,-10.47 10.89,6.84 0,20.13 C -10.89,6.84 -11.83,-10.47 0,-20.13 Z" fill="#a877d1" fill-opacity="1.00" transform="translate(306.38 182.83) rotate(31.03)"/><path d="M 0,-16.48 C 11.21,-8.57 10.31,5.60 0,16.48 C -10.31,5.60 -11.21,-8.57 0,-16.48 Z" fill="#b992dc" fill-opacity="1.00" transform="translate(311.51 173.46) rotate(39.30)"/><path d="M 0,-19.99 C 10.58,-10.40 9.73,6.80 0,19.99 C -9.73,6.80 -10.58,-10.40 0,-19.99 Z" fill="#a877d1" fill-opacity="1.00" transform="translate(317.73 162.12) rotate(58.94)"/><path d="M 0,-17.06 C 12.78,-8.87 11.76,5.80 0,17.06 C -11.76,5.80 -12.78,-8.87 0,-17.06 Z" fill="#7a45a8" fill-opacity="0.26" transform="translate(291.08 217.63) rotate(7.65)"/><path d="M 0,-19.33 C 13.41,-10.05 12.34,6.57 0,19.33 C -12.34,6.57 -13.41,-10.05 0,-19.33 Z" fill="#7a45a8" fill-opacity="0.26" transform="translate(297.01 206.53) rotate(17.37)"/><path d="M 0,-16.75 C 12.96,-8.71 11.92,5.69 0,16.75 C -11.92,5.69 -12.96,-8.71 0,-16.75 Z" fill="#7a45a8" fill-opacity="0.26" transform="translate(302.49 195.47) rotate(27.57)"/><path d="M 0,-19.34 C 13.87,-10.06 12.76,6.58 0,19.34 C -12.76,6.58 -13.87,-10.06 0,-19.34 Z" fill="#7a45a8" fill-opacity="0.26" transform="translate(308.40 184.52) rotate(41.69)"/><path d="M 0,-19.96 C 12.84,-10.38 11.81,6.79 0,19.96 C -11.81,6.79 -12.84,-10.38 0,-19.96 Z" fill="#7a45a8" fill-opacity="0.26" transform="translate(314.51 172.45) rotate(49.40)"/><path d="M 0,-7.55 C 5.59,-3.93 5.14,2.57 0,7.55 C -5.14,2.57 -5.59,-3.93 0,-7.55 Z" fill="#d4bbe9" fill-opacity="0.75" transform="translate(298.68 190.87) rotate(27.57)"/><path d="M 0,-8.72 C 5.98,-4.54 5.51,2.97 0,8.72 C -5.51,2.97 -5.98,-4.54 0,-8.72 Z" fill="#d4bbe9" fill-opacity="0.75" transform="translate(304.32 179.21) rotate(41.69)"/><path d="M 0,-16.72 C 12.53,-8.70 11.53,5.69 0,16.72 C -11.53,5.69 -12.53,-8.70 0,-16.72 Z" fill="#b992dc" fill-opacity="1.00" transform="translate(289.32 215.63) rotate(7.65)"/><path d="M 0,-18.95 C 13.15,-9.85 12.09,6.44 0,18.95 C -12.09,6.44 -13.15,-9.85 0,-18.95 Z" fill="#a877d1" fill-opacity="1.00" transform="translate(295.17 204.26) rotate(17.37)"/><path d="M 0,-16.42 C 12.71,-8.54 11.69,5.58 0,16.42 C -11.69,5.58 -12.71,-8.54 0,-16.42 Z" fill="#a877d1" fill-opacity="1.00" transform="translate(300.71 193.50) rotate(27.57)"/><path d="M 0,-18.96 C 13.60,-9.86 12.51,6.45 0,18.96 C -12.51,6.45 -13.60,-9.86 0,-18.96 Z" fill="#a877d1" fill-opacity="1.00" transform="translate(306.50 182.25) rotate(41.69)"/><path d="M 0,-19.57 C 12.59,-10.18 11.58,6.65 0,19.57 C -11.58,6.65 -12.59,-10.18 0,-19.57 Z" fill="#a877d1" fill-opacity="1.00" transform="translate(312.75 170.10) rotate(49.40)"/><path d="M 0,-22.16 C 13.27,-11.52 12.21,7.53 0,22.16 C -12.21,7.53 -13.27,-11.52 0,-22.16 Z" fill="#7a45a8" fill-opacity="0.26" transform="translate(286.76 228.51) rotate(1.09)"/><path d="M 0,-17.70 C 13.83,-9.20 12.73,6.02 0,17.70 C -12.73,6.02 -13.83,-9.20 0,-17.70 Z" fill="#7a45a8" fill-opacity="0.26" transform="translate(292.08 217.12) rotate(11.28)"/><path d="M 0,-17.92 C 13.73,-9.32 12.63,6.09 0,17.92 C -12.63,6.09 -13.73,-9.32 0,-17.92 Z" fill="#7a45a8" fill-opacity="0.26" transform="translate(297.87 205.12) rotate(25.05)"/><path d="M 0,-22.18 C 11.91,-11.53 10.96,7.54 0,22.18 C -10.96,7.54 -11.91,-11.53 0,-22.18 Z" fill="#7a45a8" fill-opacity="0.26" transform="translate(303.64 193.15) rotate(34.25)"/><path d="M 0,-19.97 C 13.73,-10.38 12.63,6.79 0,19.97 C -12.63,6.79 -13.73,-10.38 0,-19.97 Z" fill="#7a45a8" fill-opacity="0.26" transform="translate(310.20 179.82) rotate(53.92)"/><path d="M 0,-9.99 C 5.72,-5.20 5.27,3.40 0,9.99 C -5.27,3.40 -5.72,-5.20 0,-9.99 Z" fill="#d4bbe9" fill-opacity="0.75" transform="translate(282.86 222.43) rotate(1.09)"/><path d="M 0,-8.08 C 5.92,-4.20 5.45,2.75 0,8.08 C -5.45,2.75 -5.92,-4.20 0,-8.08 Z" fill="#d4bbe9" fill-opacity="0.75" transform="translate(293.83 200.20) rotate(25.05)"/><path d="M 0,-10.00 C 5.14,-5.20 4.73,3.40 0,10.00 C -4.73,3.40 -5.14,-5.20 0,-10.00 Z" fill="#d4bbe9" fill-opacity="0.75" transform="translate(300.14 187.07) rotate(34.25)"/><path d="M 0,-21.73 C 13.01,-11.30 11.97,7.39 0,21.73 C -11.97,7.39 -13.01,-11.30 0,-21.73 Z" fill="#a877d1" fill-opacity="1.00" transform="translate(284.94 225.91) rotate(1.09)"/><path d="M 0,-17.35 C 13.56,-9.02 12.48,5.90 0,17.35 C -12.48,5.90 -13.56,-9.02 0,-17.35 Z" fill="#b992dc" fill-opacity="1.00" transform="translate(290.18 215.04) rotate(11.28)"/><path d="M 0,-17.57 C 13.46,-9.13 12.38,5.97 0,17.57 C -12.38,5.97 -13.46,-9.13 0,-17.57 Z" fill="#a877d1" fill-opacity="1.00" transform="translate(295.99 203.01) rotate(25.05)"/><path d="M 0,-21.74 C 11.68,-11.31 10.74,7.39 0,21.74 C -10.74,7.39 -11.68,-11.31 0,-21.74 Z" fill="#a877d1" fill-opacity="1.00" transform="translate(302.01 190.55) rotate(34.25)"/><path d="M 0,-19.58 C 13.46,-10.18 12.38,6.66 0,19.58 C -12.38,6.66 -13.46,-10.18 0,-19.58 Z" fill="#b992dc" fill-opacity="1.00" transform="translate(308.32 177.47) rotate(53.92)"/><path d="M 0,-18.53 C 15.18,-9.64 13.97,6.30 0,18.53 C -13.97,6.30 -15.18,-9.64 0,-18.53 Z" fill="#7a45a8" fill-opacity="0.26" transform="translate(282.37 239.64) rotate(-6.24)"/><path d="M 0,-21.23 C 13.73,-11.04 12.63,7.22 0,21.23 C -12.63,7.22 -13.73,-11.04 0,-21.23 Z" fill="#7a45a8" fill-opacity="0.26" transform="translate(287.69 227.77) rotate(7.89)"/><path d="M 0,-18.54 C 13.08,-9.64 12.03,6.31 0,18.54 C -12.03,6.31 -13.08,-9.64 0,-18.54 Z" fill="#7a45a8" fill-opacity="0.26" transform="translate(293.52 214.35) rotate(26.52)"/><path d="M 0,-19.58 C 14.25,-10.18 13.11,6.66 0,19.58 C -13.11,6.66 -14.25,-10.18 0,-19.58 Z" fill="#7a45a8" fill-opacity="0.26" transform="translate(299.49 201.63) rotate(34.90)"/><path d="M 0,-18.79 C 13.37,-9.77 12.30,6.39 0,18.79 C -12.30,6.39 -13.37,-9.77 0,-18.79 Z" fill="#7a45a8" fill-opacity="0.26" transform="translate(305.19 188.65) rotate(52.28)"/><path d="M 0,-8.36 C 6.55,-4.35 6.02,2.84 0,8.36 C -6.02,2.84 -6.55,-4.35 0,-8.36 Z" fill="#dfcbef" fill-opacity="0.75" transform="translate(277.91 234.56) rotate(-6.24)"/><path d="M 0,-8.36 C 5.64,-4.35 5.19,2.84 0,8.36 C -5.19,2.84 -5.64,-4.35 0,-8.36 Z" fill="#d4bbe9" fill-opacity="0.75" transform="translate(289.67 209.26) rotate(26.52)"/><path d="M 0,-8.83 C 6.15,-4.59 5.66,3.00 0,8.83 C -5.66,3.00 -6.15,-4.59 0,-8.83 Z" fill="#dfcbef" fill-opacity="0.75" transform="translate(295.29 196.25) rotate(34.90)"/><path d="M 0,-18.17 C 14.88,-9.45 13.69,6.18 0,18.17 C -13.69,6.18 -14.88,-9.45 0,-18.17 Z" fill="#b992dc" fill-opacity="1.00" transform="translate(280.29 237.46) rotate(-6.24)"/><path d="M 0,-20.81 C 13.46,-10.82 12.39,7.08 0,20.81 C -12.39,7.08 -13.46,-10.82 0,-20.81 Z" fill="#b992dc" fill-opacity="1.00" transform="translate(285.80 225.27) rotate(7.89)"/><path d="M 0,-18.18 C 12.82,-9.45 11.79,6.18 0,18.18 C -11.79,6.18 -12.82,-9.45 0,-18.18 Z" fill="#a877d1" fill-opacity="1.00" transform="translate(291.72 212.17) rotate(26.52)"/><path d="M 0,-19.19 C 13.97,-9.98 12.86,6.53 0,19.19 C -12.86,6.53 -13.97,-9.98 0,-19.19 Z" fill="#b992dc" fill-opacity="1.00" transform="translate(297.53 199.33) rotate(34.90)"/><path d="M 0,-18.42 C 13.10,-9.58 12.06,6.26 0,18.42 C -12.06,6.26 -13.10,-9.58 0,-18.42 Z" fill="#a877d1" fill-opacity="1.00" transform="translate(303.35 186.44) rotate(52.28)"/><path d="M 0,-20.10 C 11.88,-10.45 10.93,6.83 0,20.10 C -10.93,6.83 -11.88,-10.45 0,-20.10 Z" fill="#7a45a8" fill-opacity="0.26" transform="translate(279.29 247.47) rotate(-4.17)"/><path d="M 0,-17.44 C 14.11,-9.07 12.98,5.93 0,17.44 C -12.98,5.93 -14.11,-9.07 0,-17.44 Z" fill="#7a45a8" fill-opacity="0.26" transform="translate(284.35 235.93) rotate(8.05)"/><path d="M 0,-20.88 C 11.83,-10.86 10.88,7.10 0,20.88 C -10.88,7.10 -11.83,-10.86 0,-20.88 Z" fill="#7a45a8" fill-opacity="0.26" transform="translate(289.27 223.94) rotate(22.60)"/><path d="M 0,-20.70 C 12.83,-10.76 11.81,7.04 0,20.70 C -11.81,7.04 -12.83,-10.76 0,-20.70 Z" fill="#7a45a8" fill-opacity="0.26" transform="translate(294.22 212.53) rotate(39.85)"/><path d="M 0,-18.25 C 13.17,-9.49 12.12,6.21 0,18.25 C -12.12,6.21 -13.17,-9.49 0,-18.25 Z" fill="#7a45a8" fill-opacity="0.26" transform="translate(299.63 199.56) rotate(47.32)"/><path d="M 0,-9.06 C 5.12,-4.71 4.71,3.08 0,9.06 C -4.71,3.08 -5.12,-4.71 0,-9.06 Z" fill="#c8a9e2" fill-opacity="0.75" transform="translate(275.80 241.95) rotate(-4.17)"/><path d="M 0,-8.23 C 5.68,-4.28 5.23,2.80 0,8.23 C -5.23,2.80 -5.68,-4.28 0,-8.23 Z" fill="#c8a9e2" fill-opacity="0.75" transform="translate(295.76 194.55) rotate(47.32)"/><path d="M 0,-19.70 C 11.65,-10.25 10.71,6.70 0,19.70 C -10.71,6.70 -11.65,-10.25 0,-19.70 Z" fill="#995ec9" fill-opacity="1.00" transform="translate(277.66 245.11) rotate(-4.17)"/><path d="M 0,-17.10 C 13.83,-8.89 12.73,5.81 0,17.10 C -12.73,5.81 -13.83,-8.89 0,-17.10 Z" fill="#b992dc" fill-opacity="1.00" transform="translate(282.41 233.88) rotate(8.05)"/><path d="M 0,-20.47 C 11.59,-10.64 10.67,6.96 0,20.47 C -10.67,6.96 -11.59,-10.64 0,-20.47 Z" fill="#a877d1" fill-opacity="1.00" transform="translate(287.65 221.48) rotate(22.60)"/><path d="M 0,-20.29 C 12.58,-10.55 11.58,6.90 0,20.29 C -11.58,6.90 -12.58,-10.55 0,-20.29 Z" fill="#b992dc" fill-opacity="1.00" transform="translate(292.46 210.10) rotate(39.85)"/><path d="M 0,-17.90 C 12.91,-9.31 11.88,6.08 0,17.90 C -11.88,6.08 -12.91,-9.31 0,-17.90 Z" fill="#995ec9" fill-opacity="1.00" transform="translate(297.83 197.41) rotate(47.32)"/><path d="M 0,-15.37 C 11.40,-7.99 10.48,5.23 0,15.37 C -10.48,5.23 -11.40,-7.99 0,-15.37 Z" fill="#7a45a8" fill-opacity="0.26" transform="translate(276.52 255.10) rotate(1.14)"/><path d="M 0,-17.65 C 10.43,-9.18 9.60,6.00 0,17.65 C -9.60,6.00 -10.43,-9.18 0,-17.65 Z" fill="#7a45a8" fill-opacity="0.26" transform="translate(280.45 245.07) rotate(5.00)"/><path d="M 0,-15.65 C 10.84,-8.14 9.98,5.32 0,15.65 C -9.98,5.32 -10.84,-8.14 0,-15.65 Z" fill="#7a45a8" fill-opacity="0.26" transform="translate(285.23 232.86) rotate(21.12)"/><path d="M 0,-18.54 C 11.27,-9.64 10.37,6.30 0,18.54 C -10.37,6.30 -11.27,-9.64 0,-18.54 Z" fill="#7a45a8" fill-opacity="0.26" transform="translate(289.12 223.48) rotate(29.74)"/><path d="M 0,-18.00 C 10.99,-9.36 10.11,6.12 0,18.00 C -10.11,6.12 -10.99,-9.36 0,-18.00 Z" fill="#7a45a8" fill-opacity="0.26" transform="translate(292.84 213.89) rotate(49.86)"/><path d="M 0,-8.36 C 4.86,-4.35 4.47,2.84 0,8.36 C -4.47,2.84 -4.86,-4.35 0,-8.36 Z" fill="#dfcbef" fill-opacity="0.75" transform="translate(285.81 218.39) rotate(29.74)"/><path d="M 0,-15.07 C 11.17,-7.84 10.28,5.12 0,15.07 C -10.28,5.12 -11.17,-7.84 0,-15.07 Z" fill="#b992dc" fill-opacity="1.00" transform="translate(274.95 253.29) rotate(1.14)"/><path d="M 0,-17.30 C 10.23,-9.00 9.41,5.88 0,17.30 C -9.41,5.88 -10.23,-9.00 0,-17.30 Z" fill="#b992dc" fill-opacity="1.00" transform="translate(279.01 243.00) rotate(5.00)"/><path d="M 0,-15.34 C 10.63,-7.98 9.78,5.22 0,15.34 C -9.78,5.22 -10.63,-7.98 0,-15.34 Z" fill="#a877d1" fill-opacity="1.00" transform="translate(283.74 231.02) rotate(21.12)"/><path d="M 0,-18.18 C 11.05,-9.45 10.17,6.18 0,18.18 C -10.17,6.18 -11.05,-9.45 0,-18.18 Z" fill="#b992dc" fill-opacity="1.00" transform="translate(287.58 221.29) rotate(29.74)"/><path d="M 0,-17.65 C 10.78,-9.18 9.91,6.00 0,17.65 C -9.91,6.00 -10.78,-9.18 0,-17.65 Z" fill="#a877d1" fill-opacity="1.00" transform="translate(291.33 211.77) rotate(49.86)"/><path d="M 0,-12.22 C 9.56,-6.35 8.79,4.15 0,12.22 C -8.79,4.15 -9.56,-6.35 0,-12.22 Z" fill="#7a45a8" fill-opacity="0.26" transform="translate(274.29 261.33) rotate(-0.95)"/><path d="M 0,-12.27 C 8.61,-6.38 7.92,4.17 0,12.27 C -7.92,4.17 -8.61,-6.38 0,-12.27 Z" fill="#7a45a8" fill-opacity="0.26" transform="translate(277.85 251.29) rotate(11.66)"/><path d="M 0,-12.41 C 9.94,-6.45 9.14,4.22 0,12.41 C -9.14,4.22 -9.94,-6.45 0,-12.41 Z" fill="#7a45a8" fill-opacity="0.26" transform="translate(280.86 243.60) rotate(15.25)"/><path d="M 0,-12.13 C 9.41,-6.31 8.66,4.12 0,12.13 C -8.66,4.12 -9.41,-6.31 0,-12.13 Z" fill="#7a45a8" fill-opacity="0.26" transform="translate(283.70 235.63) rotate(30.66)"/><path d="M 0,-12.39 C 8.46,-6.44 7.78,4.21 0,12.39 C -7.78,4.21 -8.46,-6.44 0,-12.39 Z" fill="#7a45a8" fill-opacity="0.26" transform="translate(286.89 226.62) rotate(43.46)"/><path d="M 0,-5.51 C 4.12,-2.87 3.79,1.87 0,5.51 C -3.79,1.87 -4.12,-2.87 0,-5.51 Z" fill="#c8a9e2" fill-opacity="0.75" transform="translate(271.48 257.97) rotate(-0.95)"/><path d="M 0,-5.53 C 3.71,-2.88 3.42,1.88 0,5.53 C -3.42,1.88 -3.71,-2.88 0,-5.53 Z" fill="#d4bbe9" fill-opacity="0.75" transform="translate(275.32 247.92) rotate(11.66)"/><path d="M 0,-5.47 C 4.06,-2.84 3.74,1.86 0,5.47 C -3.74,1.86 -4.06,-2.84 0,-5.47 Z" fill="#c8a9e2" fill-opacity="0.75" transform="translate(280.93 232.30) rotate(30.66)"/><path d="M 0,-11.98 C 9.37,-6.23 8.62,4.07 0,11.98 C -8.62,4.07 -9.37,-6.23 0,-11.98 Z" fill="#995ec9" fill-opacity="1.00" transform="translate(272.98 259.89) rotate(-0.95)"/><path d="M 0,-12.03 C 8.44,-6.25 7.76,4.09 0,12.03 C -7.76,4.09 -8.44,-6.25 0,-12.03 Z" fill="#a877d1" fill-opacity="1.00" transform="translate(276.67 249.85) rotate(11.66)"/><path d="M 0,-12.17 C 9.74,-6.33 8.96,4.14 0,12.17 C -8.96,4.14 -9.74,-6.33 0,-12.17 Z" fill="#995ec9" fill-opacity="1.00" transform="translate(279.50 242.14) rotate(15.25)"/><path d="M 0,-11.89 C 9.23,-6.18 8.49,4.04 0,11.89 C -8.49,4.04 -9.23,-6.18 0,-11.89 Z" fill="#995ec9" fill-opacity="1.00" transform="translate(282.41 234.21) rotate(30.66)"/><path d="M 0,-12.15 C 8.29,-6.32 7.63,4.13 0,12.15 C -7.63,4.13 -8.29,-6.32 0,-12.15 Z" fill="#995ec9" fill-opacity="1.00" transform="translate(285.73 225.16) rotate(43.46)"/><path d="M 0,0 C 11.0,-31.2 7.3,-74.9 0,-104.0 C -7.3,-74.9 -11.0,-31.2 0,0 Z" fill="url(#leafGrad)" transform="translate(238.0 470.0) rotate(-21.0)"/><path d="M 0,0 C 9.0,-25.8 5.9,-61.9 0,-86.0 C -5.9,-61.9 -9.0,-25.8 0,0 Z" fill="url(#leafGrad)" transform="translate(259.0 472.0) rotate(24.0)"/><path d="M 0,0 C 8.0,-21.0 5.3,-50.4 0,-70.0 C -5.3,-50.4 -8.0,-21.0 0,0 Z" fill="url(#leafGrad)" transform="translate(226.0 471.0) rotate(-6.0)"/><path d="M 0,0 C 7.0,-17.4 4.6,-41.8 0,-58.0 C -4.6,-41.8 -7.0,-17.4 0,0 Z" fill="url(#leafGrad)" transform="translate(272.0 470.0) rotate(38.0)"/><path d="M 0,-15.64 C 7.54,-8.13 6.94,5.32 0,15.64 C -6.94,5.32 -7.54,-8.13 0,-15.64 Z" fill="#a877d1" fill-opacity="0.94" transform="translate(398.00 132.00) rotate(30.00)"/><path d="M 0,-12.92 C 6.23,-6.72 5.73,4.39 0,12.92 C -5.73,4.39 -6.23,-6.72 0,-12.92 Z" fill="#b992dc" fill-opacity="0.82" transform="translate(436.00 172.00) rotate(55.00)"/><path d="M 0,-11.22 C 5.41,-5.83 4.98,3.81 0,11.22 C -4.98,3.81 -5.41,-5.83 0,-11.22 Z" fill="#a877d1" fill-opacity="0.74" transform="translate(420.00 92.00) rotate(14.00)"/><path d="M 0,-9.86 C 4.76,-5.13 4.38,3.35 0,9.86 C -4.38,3.35 -4.76,-5.13 0,-9.86 Z" fill="#b992dc" fill-opacity="0.62" transform="translate(458.00 226.00) rotate(70.00)"/><path d="M 0,-8.84 C 4.26,-4.60 3.92,3.01 0,8.84 C -3.92,3.01 -4.26,-4.60 0,-8.84 Z" fill="#a877d1" fill-opacity="0.56" transform="translate(378.00 74.00) rotate(-6.00)"/><path d="M 0,-7.82 C 3.77,-4.07 3.47,2.66 0,7.82 C -3.47,2.66 -3.77,-4.07 0,-7.82 Z" fill="#a877d1" fill-opacity="0.50" transform="translate(446.00 128.00) rotate(40.00)"/></g><g transform="translate(244.3 151.0)"><g fill="#995ec9" transform="translate(0.00 0)"><path d="M51.66656494140625 0V55.00067138671875Q79.666259765625 56.333984375 94.66629028320312 64.83377075195312Q109.66632080078125 73.33355712890625 115.8331298828125 94.50003051757812Q121.99993896484375 115.66650390625 121.99993896484375 153.99993896484375V553.332275390625Q121.99993896484375 577.9990844726562 123.33328247070312 600.8325500488281Q124.6666259765625 623.666015625 125.6666259765625 637.3326416015625Q109 636.3326416015625 86.9998779296875 635.6659851074219Q64.999755859375 634.9993286132812 51.66656494140625 633.9993286132812V700H318.00115966796875V644.9993286132812Q291.00146484375 643.9993286132812 275.5014343261719 635.3328857421875Q260.00140380859375 626.6664428710938 253.8345947265625 605.9999694824219Q247.66778564453125 585.33349609375 247.66778564453125 546.0000610351562V147.66766357421875Q247.66778564453125 120.66766357421875 246.83444213867188 98.334228515625Q246.0010986328125 76.00079345703125 244.0010986328125 63.00079345703125L395.66668701171875 64.000732421875Q455.99993896484375 64.33404541015625 489.1666259765625 104.66741943359375Q522.3333129882812 145.00079345703125 522.3333129882812 229.00067138671875H578.333984375L572.333984375 0Z" transform="translate(0.000 0) scale(0.092000 -0.092000)"/><path d="M0.6668701171875 0V57.000732421875Q29.33349609375 57.000732421875 46.00018310546875 73.000732421875Q62.6668701171875 89.000732421875 73.83355712890625 115.6673583984375Q85.000244140625 142.333984375 97.00018310546875 174.66717529296875L295.6666259765625 718.3333129882812H350.334228515625L566.6673583984375 165.33380126953125Q573.333984375 148.33392333984375 583.333984375 117.00064086914062Q593.333984375 85.6673583984375 594.000732421875 62.6673583984375Q611.000732421875 64.33404541015625 627.0007019042969 65.00070190429688Q643.0006713867188 65.6673583984375 655.3338623046875 66.00067138671875V0H399.6663818359375V55.00067138671875Q430.99951171875 55.333984375 441.9994812011719 68.33389282226562Q452.99945068359375 81.33380126953125 451.33282470703125 102.00042724609375Q449.66619873046875 122.66705322265625 440.6661376953125 145.3338623046875L415.66644287109375 213.33306884765625L184.333984375 208.66644287109375L162.00103759765625 141.66766357421875Q156.33441162109375 125.001220703125 148.16766357421875 103.33432006835938Q140.00091552734375 81.66741943359375 132.334228515625 64.66741943359375Q149.66748046875 66.3341064453125 171.16754150390625 67.00076293945312Q192.6676025390625 67.66741943359375 205.66741943359375 68.000732421875V0ZM206.0008544921875 273.00042724609375H394.3328857421875L340.00006103515625 419.99908447265625Q327.66668701171875 454.33251953125 317.1667175292969 488.8326416015625Q306.666748046875 523.332763671875 299.6668701171875 552.3327026367188H298.33355712890625Q292.33367919921875 531.666259765625 283.5003967285156 499.6661376953125Q274.6671142578125 467.666015625 259.6669921875 426.6656494140625Z" transform="translate(59.940 0) scale(0.092000 -0.092000)"/><path d="M320.6666259765625 -7.333251953125 91.66656494140625 528.0001831054688Q77.66680908203125 561.6663208007812 68.66680908203125 590.1662292480469Q59.66680908203125 618.6661376953125 58.6668701171875 636.666015625Q43.33349609375 635.666015625 29.666839599609375 635.3326721191406Q16.00018310546875 634.9993286132812 4.000244140625 633.9993286132812V700H278.00152587890625L277.668212890625 644.666015625Q236.33514404296875 644.332763671875 220.00161743164062 623.8329772949219Q203.6680908203125 603.3331909179688 222.334716796875 557.3333129882812Q245.66802978515625 500.3333740234375 268.334716796875 444.0Q291.00140380859375 387.6666259765625 315.33465576171875 329.0001220703125Q334.6678466796875 282.333740234375 350.1676330566406 244.16748046875Q365.66741943359375 206.001220703125 380.33416748046875 169.33447265625H381.66748046875Q392.66748046875 201.00103759765625 404.83416748046875 236.33447265625Q417.0008544921875 271.66790771484375 430.3341064453125 309.00103759765625Q449.00042724609375 360.3333740234375 464.16693115234375 402.99957275390625Q479.33343505859375 445.665771484375 493.00006103515625 482.3323059082031Q506.66668701171875 518.9988403320312 518.0000610351562 551.9989624023438Q524.3333129882812 571.998779296875 534.3334045410156 597.3323364257812Q544.33349609375 622.6658935546875 555.0003051757812 637.3326416015625Q538.0003662109375 636.3326416015625 515.000244140625 635.6659851074219Q492.0001220703125 634.9993286132812 478.00030517578125 633.9993286132812V700H695.6674194335938V644.9993286132812Q658.3342895507812 643.666015625 633.8342590332031 620.6659545898438Q609.334228515625 597.6658935546875 588.3341674804688 540.9991455078125Q576.3338623046875 509.99835205078125 564.3335876464844 477.49761962890625Q552.3333129882812 444.99688720703125 538.9997863769531 408.9963684082031Q525.666259765625 372.995849609375 509.99951171875 331.162353515625Q494.332763671875 289.328857421875 475.8328857421875 238.99588012695312Q457.3330078125 188.66290283203125 434.8333740234375 127.99725341796875Q412.333740234375 67.33160400390625 384.667724609375 -7.333251953125Z" transform="translate(125.308 0) scale(0.092000 -0.092000)"/><path d="M394.33306884765625 246.9996337890625Q394.33306884765625 289.666259765625 381.6663818359375 308.666259765625Q368.99969482421875 327.666259765625 345.3330993652344 331.9996032714844Q321.66650390625 336.33294677734375 289.33349609375 334.9996337890625L247.66778564453125 333.3330078125V147.66766357421875Q247.66778564453125 120.66766357421875 246.83444213867188 98.334228515625Q246.0010986328125 76.00079345703125 244.0010986328125 63.00079345703125L396.99993896484375 64.000732421875Q431.66632080078125 64.33404541015625 460.99957275390625 77.83404541015625Q490.33282470703125 91.33404541015625 508.33282470703125 123.66732788085938Q526.3328247070312 156.0006103515625 526.3328247070312 211.66717529296875H581.0001220703125L575.6668090820312 0H51.66656494140625V55.00067138671875Q79.666259765625 56.333984375 94.66629028320312 64.83377075195312Q109.66632080078125 73.33355712890625 115.8331298828125 94.50003051757812Q121.99993896484375 115.66650390625 121.99993896484375 153.99993896484375V553.332275390625Q121.99993896484375 577.9990844726562 123.33328247070312 600.8325500488281Q124.6666259765625 623.666015625 125.6666259765625 637.3326416015625Q109 636.3326416015625 86.9998779296875 635.6659851074219Q64.999755859375 634.9993286132812 51.66656494140625 633.9993286132812V700H545.3336181640625L551.0003051757812 512.3329467773438H495.9996337890625Q495.9996337890625 568.6661987304688 477.33294677734375 597.4994812011719Q458.666259765625 626.332763671875 429.8329772949219 636.1660766601562Q400.99969482421875 645.9993896484375 370.333251953125 644.9993896484375L317.6676025390625 643.6660766601562Q291.3345947265625 643.332763671875 276.00128173828125 635.3329162597656Q260.66796875 627.3330688476562 254.16787719726562 606.4998779296875Q247.66778564453125 585.6666870117188 247.66778564453125 546.0000610351562V392.66693115234375L388.3330078125 392.3336181640625L383.33306884765625 479.00030517578125H449.333740234375V246.9996337890625Z" transform="translate(193.988 0) scale(0.092000 -0.092000)"/><path d="M588.666259765625 -11.9998779296875 242.33453369140625 439.33087158203125Q230.66778564453125 454.664306640625 218.50100708007812 471.1644592285156Q206.334228515625 487.66461181640625 194.00079345703125 504.99810791015625H193.00079345703125L195.3341064453125 155.66717529296875Q195.3341064453125 129.33380126953125 194.66741943359375 104.33380126953125Q194.000732421875 79.33380126953125 192.000732421875 62.6673583984375Q208.6673583984375 64.33404541015625 231.00082397460938 65.00070190429688Q253.33428955078125 65.6673583984375 266.00079345703125 66.00067138671875V0H52.9998779296875V55.00067138671875Q78.6663818359375 55.6673583984375 93.499755859375 63.500518798828125Q108.3331298828125 71.33367919921875 115.33322143554688 89.50033569335938Q122.33331298828125 107.6669921875 122.33331298828125 139.33416748046875L121.333251953125 554.9988403320312Q121.333251953125 578.6657104492188 121.99993896484375 600.9992065429688Q122.6666259765625 623.3327026367188 124 637.3326416015625Q108 636.3326416015625 85.99984741210938 635.6659851074219Q63.99969482421875 634.9993286132812 50.99981689453125 633.9993286132812V700H195.33392333984375L524.33251953125 275.335693359375Q545.332763671875 248.33538818359375 560.49951171875 227.33526611328125Q575.666259765625 206.33514404296875 587.9995727539062 189.33514404296875H588.9995727539062L589.3328857421875 553.332275390625Q589.3328857421875 577.9990844726562 590.3328857421875 600.8325500488281Q591.3328857421875 623.666015625 592.3328857421875 637.3326416015625Q575.666259765625 636.3326416015625 553.6661376953125 635.6659851074219Q531.666015625 634.9993286132812 518.3328247070312 633.9993286132812V700H731.6670532226562V644.9993286132812Q704.6673583984375 643.9993286132812 689.333984375 635.3328857421875Q674.0006103515625 626.6664428710938 668.0004577636719 605.9999694824219Q662.0003051757812 585.33349609375 662.0003051757812 546.0000610351562L661.3336791992188 -11.9998779296875Z" transform="translate(256.504 0) scale(0.092000 -0.092000)"/><path d="M51.66656494140625 55.00067138671875Q79.666259765625 56.333984375 94.66629028320312 64.83377075195312Q109.66632080078125 73.33355712890625 115.8331298828125 94.50003051757812Q121.99993896484375 115.66650390625 121.99993896484375 153.99993896484375V553.332275390625Q121.99993896484375 577.9990844726562 123.33328247070312 600.8325500488281Q124.6666259765625 623.666015625 125.6666259765625 637.3326416015625Q109 636.3326416015625 86.9998779296875 635.6659851074219Q64.999755859375 634.9993286132812 51.66656494140625 633.9993286132812V700L324.3343505859375 701Q420.33453369140625 701 493.6678161621094 674.3331604003906Q567.0010986328125 647.6663208007812 616.1676025390625 599.8328552246094Q665.3341064453125 551.9993896484375 690.5006408691406 488.83282470703125Q715.6671752929688 425.666259765625 715.6671752929688 354.33349609375Q715.6671752929688 290.6669921875 693.3338928222656 227.6669921875Q671.0006103515625 164.6669921875 624.333984375 113.500244140625Q577.6673583984375 62.33349609375 504.5006408691406 31.166748046875Q431.33392333984375 0 330.0003662109375 0H51.66656494140625ZM247.66778564453125 148.6676025390625Q247.66778564453125 121.6676025390625 246.83444213867188 98.66748046875Q246.0010986328125 75.6673583984375 244.0010986328125 62.6673583984375Q259.66741943359375 63.000732421875 278.833984375 62.500732421875Q298.00054931640625 62.000732421875 315.8339538574219 61.667388916015625Q333.6673583984375 61.33404541015625 343.0008544921875 61.33404541015625Q401.333984375 61.33404541015625 445.16705322265625 84.00067138671875Q489.0001220703125 106.66729736328125 518.4998779296875 145.8338623046875Q547.9996337890625 185.00042724609375 562.8327941894531 235.50021362304688Q577.6659545898438 286 577.6659545898438 341.66632080078125Q577.6659545898438 441.3331298828125 547.4994201660156 507.8330383300781Q517.3328857421875 574.3329467773438 459.9999694824219 608.4994812011719Q402.66705322265625 642.666015625 319.33453369140625 643.9993896484375Q291.00146484375 644.6660766601562 275.1680908203125 635.9996032714844Q259.334716796875 627.3331298828125 253.50125122070312 606.3333129882812Q247.66778564453125 585.33349609375 247.66778564453125 547.3334350585938Z" transform="translate(332.452 0) scale(0.092000 -0.092000)"/><path d="M394.33306884765625 246.9996337890625Q394.33306884765625 289.666259765625 381.6663818359375 308.666259765625Q368.99969482421875 327.666259765625 345.3330993652344 331.9996032714844Q321.66650390625 336.33294677734375 289.33349609375 334.9996337890625L247.66778564453125 333.3330078125V147.66766357421875Q247.66778564453125 120.66766357421875 246.83444213867188 98.334228515625Q246.0010986328125 76.00079345703125 244.0010986328125 63.00079345703125L396.99993896484375 64.000732421875Q431.66632080078125 64.33404541015625 460.99957275390625 77.83404541015625Q490.33282470703125 91.33404541015625 508.33282470703125 123.66732788085938Q526.3328247070312 156.0006103515625 526.3328247070312 211.66717529296875H581.0001220703125L575.6668090820312 0H51.66656494140625V55.00067138671875Q79.666259765625 56.333984375 94.66629028320312 64.83377075195312Q109.66632080078125 73.33355712890625 115.8331298828125 94.50003051757812Q121.99993896484375 115.66650390625 121.99993896484375 153.99993896484375V553.332275390625Q121.99993896484375 577.9990844726562 123.33328247070312 600.8325500488281Q124.6666259765625 623.666015625 125.6666259765625 637.3326416015625Q109 636.3326416015625 86.9998779296875 635.6659851074219Q64.999755859375 634.9993286132812 51.66656494140625 633.9993286132812V700H545.3336181640625L551.0003051757812 512.3329467773438H495.9996337890625Q495.9996337890625 568.6661987304688 477.33294677734375 597.4994812011719Q458.666259765625 626.332763671875 429.8329772949219 636.1660766601562Q400.99969482421875 645.9993896484375 370.333251953125 644.9993896484375L317.6676025390625 643.6660766601562Q291.3345947265625 643.332763671875 276.00128173828125 635.3329162597656Q260.66796875 627.3330688476562 254.16787719726562 606.4998779296875Q247.66778564453125 585.6666870117188 247.66778564453125 546.0000610351562V392.66693115234375L388.3330078125 392.3336181640625L383.33306884765625 479.00030517578125H449.333740234375V246.9996337890625Z" transform="translate(407.020 0) scale(0.092000 -0.092000)"/><path d="M51.66656494140625 0V55.00067138671875Q79.666259765625 56.333984375 94.66629028320312 64.83377075195312Q109.66632080078125 73.33355712890625 115.8331298828125 94.50003051757812Q121.99993896484375 115.66650390625 121.99993896484375 153.99993896484375V553.332275390625Q121.99993896484375 577.9990844726562 123.33328247070312 600.8325500488281Q124.6666259765625 623.666015625 125.6666259765625 637.3326416015625Q109 636.3326416015625 86.9998779296875 635.6659851074219Q64.999755859375 634.9993286132812 51.66656494140625 633.9993286132812V700Q117.6668701171875 701 184.16714477539062 701.3333129882812Q250.66741943359375 701.6666259765625 317.3343505859375 701.6666870117188Q408.33416748046875 702.0000610351562 471.5009460449219 680.8334045410156Q534.667724609375 659.666748046875 567.3345336914062 615.1665954589844Q600.0013427734375 570.6664428710938 598.66796875 498.66595458984375Q598.3345947265625 457.6658935546875 580.1678466796875 418.8326110839844Q562.0010986328125 379.99932861328125 522.83447265625 349.9993896484375Q483.6678466796875 319.99945068359375 419.00152587890625 303.332763671875Q438.3348388671875 293.3328857421875 455.6682434082031 273.9996337890625Q473.00164794921875 254.6663818359375 488.00152587890625 231.66656494140625L542.0010986328125 149.333984375Q562.3345336914062 117.66717529296875 579.001220703125 97.16720581054688Q595.6679077148438 76.667236328125 614.0011596679688 66.16729736328125Q632.3344116210938 55.6673583984375 657.334228515625 55.00067138671875V0H505.33343505859375Q483.6669921875 17.33306884765625 465.5003662109375 42.333038330078125Q447.333740234375 67.3330078125 427.00042724609375 99.66632080078125L355.3336181640625 215.333251953125Q342.3336181640625 235.66656494140625 330.50042724609375 254.16629028320312Q318.667236328125 272.666015625 305.00079345703125 285.66583251953125Q289.00079345703125 285.33251953125 275.8342590332031 285.33251953125Q262.667724609375 285.33251953125 247.66778564453125 285.66583251953125V149.6676025390625Q247.66778564453125 122.00091552734375 246.83444213867188 98.83413696289062Q246.0010986328125 75.6673583984375 244.0010986328125 62.6673583984375Q255.33441162109375 63.6673583984375 270.6678466796875 64.1673583984375Q286.00128173828125 64.6673583984375 301.0013732910156 65.33401489257812Q316.00146484375 66.00067138671875 324.66802978515625 66.00067138671875V0ZM300.33416748046875 345.9998779296875Q356.0008544921875 346.66650390625 392.5007019042969 362.9998474121094Q429.00054931640625 379.33319091796875 447.3337097167969 413.3331604003906Q465.6668701171875 447.3331298828125 465.6668701171875 500.3330078125Q465.6668701171875 544.9998779296875 452.1667785644531 572.8331909179688Q438.66668701171875 600.66650390625 416.3333435058594 615.9997253417969Q394 631.3329467773438 367.33355712890625 636.8328247070312Q340.6671142578125 642.3327026367188 315.33441162109375 642.3327026367188Q289.00140380859375 642.3327026367188 274.1680603027344 633.9995727539062Q259.334716796875 625.6664428710938 253.50125122070312 605.4999694824219Q247.66778564453125 585.33349609375 247.66778564453125 550.0001831054688V349.333251953125Q260.3343505859375 348.333251953125 273.1676330566406 346.9999084472656Q286.00091552734375 345.66656494140625 300.33416748046875 345.9998779296875Z" transform="translate(469.536 0) scale(0.092000 -0.092000)"/></g><g fill="#a98cb1" transform="translate(96.18 46)"><path d="M630 695V0H516V304H189V0H75V695H189V397H516V695Z" transform="translate(0.000 0) scale(0.025500 -0.025500)"/><path d="M37 349Q37 451 84.5 532.0Q132 613 213.5 658.5Q295 704 392 704Q490 704 571.5 658.5Q653 613 700.0 532.0Q747 451 747 349Q747 247 700.0 165.5Q653 84 571.5 38.5Q490 -7 392 -7Q295 -7 213.5 38.5Q132 84 84.5 165.5Q37 247 37 349ZM630 349Q630 426 599.5 484.0Q569 542 515.0 573.0Q461 604 392 604Q323 604 269.0 573.0Q215 542 184.5 484.0Q154 426 154 349Q154 272 184.5 213.5Q215 155 269.0 123.5Q323 92 392 92Q461 92 515.0 123.5Q569 155 599.5 213.5Q630 272 630 349Z" transform="translate(27.377 0) scale(0.025500 -0.025500)"/><path d="M188 695V252Q188 173 229.5 133.0Q271 93 345 93Q420 93 461.5 133.0Q503 173 503 252V695H617V254Q617 169 580.0 110.0Q543 51 481.0 22.0Q419 -7 344 -7Q269 -7 207.5 22.0Q146 51 110.0 110.0Q74 169 74 254V695Z" transform="translate(56.769 0) scale(0.025500 -0.025500)"/><path d="M58 192H180Q184 147 215.5 118.0Q247 89 304 89Q363 89 396.0 117.5Q429 146 429 191Q429 226 408.5 248.0Q388 270 357.5 282.0Q327 294 273 308Q205 326 162.5 344.5Q120 363 90.0 402.0Q60 441 60 506Q60 566 90.0 611.0Q120 656 174.0 680.0Q228 704 299 704Q400 704 464.5 653.5Q529 603 536 515H410Q407 553 374.0 580.0Q341 607 287 607Q238 607 207.0 582.0Q176 557 176 510Q176 478 195.5 457.5Q215 437 245.0 425.0Q275 413 327 399Q396 380 439.5 361.0Q483 342 513.5 302.5Q544 263 544 197Q544 144 515.5 97.0Q487 50 432.5 21.5Q378 -7 304 -7Q234 -7 178.0 17.5Q122 42 90.0 87.0Q58 132 58 192Z" transform="translate(83.764 0) scale(0.025500 -0.025500)"/><path d="M189 603V399H429V306H189V93H459V0H75V696H459V603Z" transform="translate(108.566 0) scale(0.025500 -0.025500)"/><path d="M392 704Q503 704 589.5 649.5Q676 595 715 495H578Q551 550 503.0 577.0Q455 604 392 604Q323 604 269.0 573.0Q215 542 184.5 484.0Q154 426 154 349Q154 272 184.5 214.0Q215 156 269.0 124.5Q323 93 392 93Q455 93 503.0 120.0Q551 147 578 202H715Q676 102 589.5 48.0Q503 -6 392 -6Q294 -6 213.0 39.5Q132 85 84.5 166.0Q37 247 37 349Q37 451 84.5 532.0Q132 613 213.5 658.5Q295 704 392 704Z" transform="translate(147.358 0) scale(0.025500 -0.025500)"/><path d="M189 92H424V0H75V695H189Z" transform="translate(176.470 0) scale(0.025500 -0.025500)"/><path d="M189 603V399H429V306H189V93H459V0H75V696H459V603Z" transform="translate(197.192 0) scale(0.025500 -0.025500)"/><path d="M494 142H203L153 0H34L283 696H415L664 0H544ZM462 235 349 558 235 235Z" transform="translate(219.954 0) scale(0.025500 -0.025500)"/><path d="M646 0H532L189 519V0H75V696H189L532 178V696H646Z" transform="translate(247.127 0) scale(0.025500 -0.025500)"/><path d="M189 695V0H75V695Z" transform="translate(274.913 0) scale(0.025500 -0.025500)"/><path d="M646 0H532L189 519V0H75V696H189L532 178V696H646Z" transform="translate(291.045 0) scale(0.025500 -0.025500)"/><path d="M578 495Q551 547 503.0 573.5Q455 600 392 600Q323 600 269.0 569.0Q215 538 184.5 481.0Q154 424 154 349Q154 274 184.5 216.5Q215 159 269.0 128.0Q323 97 392 97Q485 97 543.0 149.0Q601 201 614 290H353V381H736V292Q725 211 678.5 143.0Q632 75 557.5 34.5Q483 -6 392 -6Q294 -6 213.0 39.5Q132 85 84.5 166.0Q37 247 37 349Q37 451 84.5 532.0Q132 613 213.5 658.5Q295 704 392 704Q503 704 589.5 649.5Q676 595 715 495Z" transform="translate(318.831 0) scale(0.025500 -0.025500)"/></g></g></svg>
